<svg width="62" height="62" viewBox="0 0 62 62" fill="none" xmlns="http://www.w3.org/2000/svg">
<g id="star">
<path id="Vector 36" d="M30.9997 0C29.3331 16.5 28.4995 52 31.0001 62C33.4995 46 31.9996 13.5 30.9997 0Z" fill="url(#paint0_linear_168_17)"/>
<path id="Vector 38" d="M17.6273 18.8006C25.6619 24.5232 41.6866 38.232 44.9468 43.4816C36.7509 38.3805 23.1176 24.682 17.6273 18.8006Z" fill="url(#paint1_linear_168_17)"/>
<path id="Vector 39" d="M17.7629 43.7966C23.8854 36.0624 38.3887 20.753 43.7968 17.7631C38.2869 25.69 23.915 38.6114 17.7629 43.7966Z" fill="url(#paint2_linear_168_17)"/>
<path id="Vector 37" d="M-6.89702e-08 31.3681C16.5 33.0347 52 33.8683 62 31.3677C46 28.8683 13.5 30.3682 -6.89702e-08 31.3681Z" fill="url(#paint3_linear_168_17)"/>
</g>
<defs>
<linearGradient id="paint0_linear_168_17" x1="27.0635" y1="-27.494" x2="36.1796" y2="-27.1709" gradientUnits="userSpaceOnUse">
<stop stop-color="#E8E8E8"/>
<stop offset="0.125" stop-color="#C4C8CA"/>
<stop offset="0.25" stop-color="#E8E8E8"/>
<stop offset="0.375" stop-color="#C9CCCE"/>
<stop offset="0.5" stop-color="#E8E8E8"/>
<stop offset="0.625" stop-color="#CFD1D2"/>
<stop offset="0.75" stop-color="#E8E8E8"/>
<stop offset="0.875" stop-color="#D3D4D5"/>
<stop offset="1" stop-color="#E8E8E8"/>
</linearGradient>
<linearGradient id="paint1_linear_168_17" x1="7.31666" y1="5.85862" x2="3.32842" y2="10.6526" gradientUnits="userSpaceOnUse">
<stop stop-color="#E8E8E8"/>
<stop offset="0.125" stop-color="#C4C8CA"/>
<stop offset="0.25" stop-color="#E8E8E8"/>
<stop offset="0.375" stop-color="#C9CCCE"/>
<stop offset="0.5" stop-color="#E8E8E8"/>
<stop offset="0.625" stop-color="#CFD1D2"/>
<stop offset="0.75" stop-color="#E8E8E8"/>
<stop offset="0.875" stop-color="#D3D4D5"/>
<stop offset="1" stop-color="#E8E8E8"/>
</linearGradient>
<linearGradient id="paint2_linear_168_17" x1="4.315" y1="53.4381" x2="8.90074" y2="57.6642" gradientUnits="userSpaceOnUse">
<stop stop-color="#E8E8E8"/>
<stop offset="0.125" stop-color="#C4C8CA"/>
<stop offset="0.25" stop-color="#E8E8E8"/>
<stop offset="0.375" stop-color="#C9CCCE"/>
<stop offset="0.5" stop-color="#E8E8E8"/>
<stop offset="0.625" stop-color="#CFD1D2"/>
<stop offset="0.75" stop-color="#E8E8E8"/>
<stop offset="0.875" stop-color="#D3D4D5"/>
<stop offset="1" stop-color="#E8E8E8"/>
</linearGradient>
<linearGradient id="paint3_linear_168_17" x1="-27.494" y1="35.3043" x2="-27.1709" y2="26.1882" gradientUnits="userSpaceOnUse">
<stop stop-color="#E8E8E8"/>
<stop offset="0.125" stop-color="#C4C8CA"/>
<stop offset="0.25" stop-color="#E8E8E8"/>
<stop offset="0.375" stop-color="#C9CCCE"/>
<stop offset="0.5" stop-color="#E8E8E8"/>
<stop offset="0.625" stop-color="#CFD1D2"/>
<stop offset="0.75" stop-color="#E8E8E8"/>
<stop offset="0.875" stop-color="#D3D4D5"/>
<stop offset="1" stop-color="#E8E8E8"/>
</linearGradient>
</defs>
</svg>
