<svg width="112" height="111" viewBox="0 0 112 111" fill="none" xmlns="http://www.w3.org/2000/svg">
<g id="sun">
<circle id="Ellipse 1" cx="56" cy="55" r="24.5" stroke="url(#paint0_linear_168_22)"/>
<path id="Vector 1" d="M60 31C60.8333 28.6667 63.7 23.6 68.5 22C70 21.6667 73.1 19.4 73.5 13C73.8333 11 75.6 6.8 80 6C78.1667 8.33333 74.9 14.8 76.5 22C77.2279 25.2757 69 28.7 71 35.5" stroke="url(#paint1_linear_168_22)"/>
<path id="Vector 6" d="M79.9996 59.5C82.2741 60.4828 87.931 62.4634 89.2166 67.357C89.452 68.8755 91.513 72.1158 97.8736 72.9297C99.8478 73.392 103.924 75.4271 104.438 79.8697C102.228 77.889 95.9867 74.2102 88.6981 75.3402C85.3821 75.8543 82.4983 67.4217 75.5829 68.9769" stroke="url(#paint2_linear_168_22)"/>
<path id="Vector 2" d="M52.5 30.5L56 0.5L59.5 30.5" stroke="url(#paint3_linear_168_22)"/>
<path id="Vector 14" d="M37.0881 39.397L17.4124 16.4816L42.0005 35" stroke="url(#paint4_linear_168_22)"/>
<path id="Vector 9" d="M60 79.5L56.5 110L53 79.5" stroke="url(#paint5_linear_168_22)"/>
<path id="Vector 7" d="M74.9328 70.797L94.5267 93.7824L70 75" stroke="url(#paint6_linear_168_22)"/>
<path id="Vector 16" d="M41.0001 74.5L17.103 94.0709L36.466 70" stroke="url(#paint7_linear_168_22)"/>
<path id="Vector 4" d="M70.4202 35.5187L94.311 17.0397L75.3157 40.5221" stroke="url(#paint8_linear_168_22)"/>
<path id="Vector 5" d="M80.5 52L111 55.5L80.5 58.5" stroke="url(#paint9_linear_168_22)"/>
<path id="Vector 15" d="M31.5 58.5L1 55L31.5 52" stroke="url(#paint10_linear_168_22)"/>
<path id="Vector 3" d="M75.5 40C76.5 41 79.6 42.4 84 40C86.6667 37.5 92.6 32.8 95 34C97.4 35.2 103.333 33.1667 106 32C104.833 33.8333 101.4 37.5 97 37.5C95.3333 37.8333 91.6 39.2 90 42C88.8333 44.1667 85.3 49.2 80.5 52" stroke="url(#paint11_linear_168_22)"/>
<path id="Vector 8" d="M69.9996 75C68.9782 75.9781 69.1682 78.3067 71.4725 82.7575C73.9142 85.4777 78.4848 91.5112 77.2332 93.8847C75.9816 96.2582 77.8861 102.234 78.9948 104.925C77.1872 103.719 73.5956 100.208 73.6908 95.8086C73.3936 94.1351 72.108 90.3731 69.3432 88.7129C67.2023 87.4996 62.2466 83.8583 59.551 78.9988" stroke="url(#paint12_linear_168_22)"/>
<path id="Vector 10" d="M52 31C51.6667 29.1667 49.3 24.5 42.5 20.5C40.8333 18.8333 37.6 14.6 38 11C37.5 9.5 35.6 6.2 32 5C33.6667 7 36.8 11.5 36 13.5C35.5 15.5 34.8 20 36 22C37 24 40.2 29 45 33" stroke="url(#paint13_linear_168_22)"/>
<path id="Vector 12" d="M31.4998 58.5C29.7646 59.1794 25.6186 61.0581 22.9998 68.5C21.6844 70.4559 15.1878 72.6672 11.5781 72.9664C10.2021 73.7453 7.32867 76.244 6.84277 80.0075C8.48526 77.9876 11.8833 75.0992 13.9998 75.5C16.0586 75.6064 22.2676 76.0107 23.9998 74.4488C25.7703 73.0831 30.9966 70.4792 33.9998 65" stroke="url(#paint14_linear_168_22)"/>
<path id="Vector 11" d="M36 41C33.8333 41.1667 29 40.9 27 38.5C25.5 36.8333 21.3 33.7 16.5 34.5C14.6667 34.8333 10 34.6 6 31C6.16667 32.3333 7.8 35.5 13 37.5C16 38 22.2 39.8 23 43C24 45.1667 27.1 49.9 31.5 51.5" stroke="url(#paint15_linear_168_22)"/>
<path id="Vector 13" d="M42.0287 75.0096C42.1933 77.1764 41.922 82.0095 39.5201 84.0072C37.852 85.5056 34.7146 89.7026 35.51 94.5034C35.8416 96.337 35.6038 101.003 32 105C33.3335 104.835 36.5017 103.204 38.5067 98.0062C39.0096 95.0067 40.8155 88.8084 44.0163 88.0115C46.1839 87.0136 50.9202 83.9181 52.5244 79.5196" stroke="url(#paint16_linear_168_22)"/>
<path id="Vector 22" d="M40 45C42.5116 43.4908 48.4279 41.3778 52 45" stroke="url(#paint17_linear_168_22)"/>
<path id="Vector 23" d="M59 45C60.9767 43.4908 64.7442 41.3778 72 45" stroke="url(#paint18_linear_168_22)"/>
<g id="eye right">
<path id="Vector 25" d="M62 51.1627C63.2549 49.6534 66.5 47.1627 70 51.1627" stroke="url(#paint19_linear_168_22)" stroke-linecap="round"/>
<path id="Vector 24" d="M61 50C62.5 48.3931 66.5 46.2862 69.5 49.5" stroke="url(#paint20_linear_168_22)" stroke-linecap="round"/>
<circle id="Ellipse 2" cx="66" cy="51" r="1.5" stroke="url(#paint21_linear_168_22)"/>
</g>
<g id="eye left">
<path id="Vector 26" d="M51 50C49.0588 47.8012 44.5 46 42.5 50" stroke="url(#paint22_linear_168_22)" stroke-linecap="round"/>
<path id="Vector 27" d="M51 52C49.2857 49.7361 45.0571 46.5667 41.8571 52H41" stroke="url(#paint23_linear_168_22)" stroke-linecap="round"/>
<circle id="Ellipse 3" cx="46" cy="51" r="1.5" stroke="url(#paint24_linear_168_22)"/>
</g>
<g id="nose">
<path id="Vector 29" d="M52.6556 61C51.9685 61.6159 51.2315 62.915 53.7798 63.1838C54.3419 63.7997 55.7285 64.662 56.7777 63.1838C57.9644 63.2958 59.9631 63.0494 58.4641 61.168" stroke="url(#paint25_linear_168_22)" stroke-linecap="round"/>
<path id="Vector 28" d="M55 53V58.6739C54.2371 59.2609 53.5127 60.7478 54.4281 62" stroke="url(#paint26_linear_168_22)" stroke-linecap="round"/>
</g>
<path id="Vector 31" d="M50 68.4205H51.3095M61 68.4205H59.4286M51.3095 68.4205C52.1825 67.4747 54.2429 66.0474 55.5 67.9046C56.0238 67.1308 57.5429 66.1506 59.4286 68.4205M51.3095 68.4205H59.4286M51.3095 68.4205C51.8333 69.2804 53.4048 71 55.5 71C57.5952 71 58.9921 69.2804 59.4286 68.4205" stroke="url(#paint27_linear_168_22)" stroke-linecap="round"/>
</g>
<defs>
<linearGradient id="paint0_linear_168_22" x1="-9.02732" y1="7.82738" x2="90.5017" y2="82.0746" gradientUnits="userSpaceOnUse">
<stop stop-color="#E8E8E8"/>
<stop offset="0.125" stop-color="#C4C8CA"/>
<stop offset="0.25" stop-color="#E8E8E8"/>
<stop offset="0.375" stop-color="#C9CCCE"/>
<stop offset="0.5" stop-color="#E8E8E8"/>
<stop offset="0.625" stop-color="#CFD1D2"/>
<stop offset="0.75" stop-color="#E8E8E8"/>
<stop offset="0.875" stop-color="#D3D4D5"/>
<stop offset="1" stop-color="#E8E8E8"/>
</linearGradient>
<linearGradient id="paint1_linear_168_22" x1="43.9891" y1="-7.08185" x2="93.3339" y2="17.8745" gradientUnits="userSpaceOnUse">
<stop stop-color="#E8E8E8"/>
<stop offset="0.125" stop-color="#C4C8CA"/>
<stop offset="0.25" stop-color="#E8E8E8"/>
<stop offset="0.375" stop-color="#C9CCCE"/>
<stop offset="0.5" stop-color="#E8E8E8"/>
<stop offset="0.625" stop-color="#CFD1D2"/>
<stop offset="0.75" stop-color="#E8E8E8"/>
<stop offset="0.875" stop-color="#D3D4D5"/>
<stop offset="1" stop-color="#E8E8E8"/>
</linearGradient>
<linearGradient id="paint2_linear_168_22" x1="119.679" y1="47.0405" x2="94.1777" y2="92.904" gradientUnits="userSpaceOnUse">
<stop stop-color="#E8E8E8"/>
<stop offset="0.125" stop-color="#C4C8CA"/>
<stop offset="0.25" stop-color="#E8E8E8"/>
<stop offset="0.375" stop-color="#C9CCCE"/>
<stop offset="0.5" stop-color="#E8E8E8"/>
<stop offset="0.625" stop-color="#CFD1D2"/>
<stop offset="0.75" stop-color="#E8E8E8"/>
<stop offset="0.875" stop-color="#D3D4D5"/>
<stop offset="1" stop-color="#E8E8E8"/>
</linearGradient>
<linearGradient id="paint3_linear_168_22" x1="46.8962" y1="-12.8036" x2="67.9467" y2="-9.13945" gradientUnits="userSpaceOnUse">
<stop stop-color="#E8E8E8"/>
<stop offset="0.125" stop-color="#C4C8CA"/>
<stop offset="0.25" stop-color="#E8E8E8"/>
<stop offset="0.375" stop-color="#C9CCCE"/>
<stop offset="0.5" stop-color="#E8E8E8"/>
<stop offset="0.625" stop-color="#CFD1D2"/>
<stop offset="0.75" stop-color="#E8E8E8"/>
<stop offset="0.875" stop-color="#D3D4D5"/>
<stop offset="1" stop-color="#E8E8E8"/>
</linearGradient>
<linearGradient id="paint4_linear_168_22" x1="1.49381" y1="13.7051" x2="17.2678" y2="1.28191" gradientUnits="userSpaceOnUse">
<stop stop-color="#E8E8E8"/>
<stop offset="0.125" stop-color="#C4C8CA"/>
<stop offset="0.25" stop-color="#E8E8E8"/>
<stop offset="0.375" stop-color="#C9CCCE"/>
<stop offset="0.5" stop-color="#E8E8E8"/>
<stop offset="0.625" stop-color="#CFD1D2"/>
<stop offset="0.75" stop-color="#E8E8E8"/>
<stop offset="0.875" stop-color="#D3D4D5"/>
<stop offset="1" stop-color="#E8E8E8"/>
</linearGradient>
<linearGradient id="paint5_linear_168_22" x1="65.6038" y1="123.525" x2="44.5332" y2="119.918" gradientUnits="userSpaceOnUse">
<stop stop-color="#E8E8E8"/>
<stop offset="0.125" stop-color="#C4C8CA"/>
<stop offset="0.25" stop-color="#E8E8E8"/>
<stop offset="0.375" stop-color="#C9CCCE"/>
<stop offset="0.5" stop-color="#E8E8E8"/>
<stop offset="0.625" stop-color="#CFD1D2"/>
<stop offset="0.75" stop-color="#E8E8E8"/>
<stop offset="0.875" stop-color="#D3D4D5"/>
<stop offset="1" stop-color="#E8E8E8"/>
</linearGradient>
<linearGradient id="paint6_linear_168_22" x1="110.407" y1="96.7268" x2="94.9274" y2="108.919" gradientUnits="userSpaceOnUse">
<stop stop-color="#E8E8E8"/>
<stop offset="0.125" stop-color="#C4C8CA"/>
<stop offset="0.25" stop-color="#E8E8E8"/>
<stop offset="0.375" stop-color="#C9CCCE"/>
<stop offset="0.5" stop-color="#E8E8E8"/>
<stop offset="0.625" stop-color="#CFD1D2"/>
<stop offset="0.75" stop-color="#E8E8E8"/>
<stop offset="0.875" stop-color="#D3D4D5"/>
<stop offset="1" stop-color="#E8E8E8"/>
</linearGradient>
<linearGradient id="paint7_linear_168_22" x1="13.7169" y1="109.815" x2="1.96746" y2="94.179" gradientUnits="userSpaceOnUse">
<stop stop-color="#E8E8E8"/>
<stop offset="0.125" stop-color="#C4C8CA"/>
<stop offset="0.25" stop-color="#E8E8E8"/>
<stop offset="0.375" stop-color="#C9CCCE"/>
<stop offset="0.5" stop-color="#E8E8E8"/>
<stop offset="0.625" stop-color="#CFD1D2"/>
<stop offset="0.75" stop-color="#E8E8E8"/>
<stop offset="0.875" stop-color="#D3D4D5"/>
<stop offset="1" stop-color="#E8E8E8"/>
</linearGradient>
<linearGradient id="paint8_linear_168_22" x1="97.4532" y1="1.22855" x2="109.556" y2="18.8374" gradientUnits="userSpaceOnUse">
<stop stop-color="#E8E8E8"/>
<stop offset="0.125" stop-color="#C4C8CA"/>
<stop offset="0.25" stop-color="#E8E8E8"/>
<stop offset="0.375" stop-color="#C9CCCE"/>
<stop offset="0.5" stop-color="#E8E8E8"/>
<stop offset="0.625" stop-color="#CFD1D2"/>
<stop offset="0.75" stop-color="#E8E8E8"/>
<stop offset="0.875" stop-color="#D3D4D5"/>
<stop offset="1" stop-color="#E8E8E8"/>
</linearGradient>
<linearGradient id="paint9_linear_168_22" x1="124.525" y1="46.7964" x2="121.402" y2="66.4391" gradientUnits="userSpaceOnUse">
<stop stop-color="#E8E8E8"/>
<stop offset="0.125" stop-color="#C4C8CA"/>
<stop offset="0.25" stop-color="#E8E8E8"/>
<stop offset="0.375" stop-color="#C9CCCE"/>
<stop offset="0.5" stop-color="#E8E8E8"/>
<stop offset="0.625" stop-color="#CFD1D2"/>
<stop offset="0.75" stop-color="#E8E8E8"/>
<stop offset="0.875" stop-color="#D3D4D5"/>
<stop offset="1" stop-color="#E8E8E8"/>
</linearGradient>
<linearGradient id="paint10_linear_168_22" x1="-12.5253" y1="63.7036" x2="-9.40249" y2="44.0609" gradientUnits="userSpaceOnUse">
<stop stop-color="#E8E8E8"/>
<stop offset="0.125" stop-color="#C4C8CA"/>
<stop offset="0.25" stop-color="#E8E8E8"/>
<stop offset="0.375" stop-color="#C9CCCE"/>
<stop offset="0.5" stop-color="#E8E8E8"/>
<stop offset="0.625" stop-color="#CFD1D2"/>
<stop offset="0.75" stop-color="#E8E8E8"/>
<stop offset="0.875" stop-color="#D3D4D5"/>
<stop offset="1" stop-color="#E8E8E8"/>
</linearGradient>
<linearGradient id="paint11_linear_168_22" x1="51.0833" y1="23.131" x2="92.2738" y2="69.9904" gradientUnits="userSpaceOnUse">
<stop stop-color="#E8E8E8"/>
<stop offset="0.125" stop-color="#C4C8CA"/>
<stop offset="0.25" stop-color="#E8E8E8"/>
<stop offset="0.375" stop-color="#C9CCCE"/>
<stop offset="0.5" stop-color="#E8E8E8"/>
<stop offset="0.625" stop-color="#CFD1D2"/>
<stop offset="0.75" stop-color="#E8E8E8"/>
<stop offset="0.875" stop-color="#D3D4D5"/>
<stop offset="1" stop-color="#E8E8E8"/>
</linearGradient>
<linearGradient id="paint12_linear_168_22" x1="89.0193" y1="51.6105" x2="42.3333" y2="91.9236" gradientUnits="userSpaceOnUse">
<stop stop-color="#E8E8E8"/>
<stop offset="0.125" stop-color="#C4C8CA"/>
<stop offset="0.25" stop-color="#E8E8E8"/>
<stop offset="0.375" stop-color="#C9CCCE"/>
<stop offset="0.5" stop-color="#E8E8E8"/>
<stop offset="0.625" stop-color="#CFD1D2"/>
<stop offset="0.75" stop-color="#E8E8E8"/>
<stop offset="0.875" stop-color="#D3D4D5"/>
<stop offset="1" stop-color="#E8E8E8"/>
</linearGradient>
<linearGradient id="paint13_linear_168_22" x1="15.9891" y1="-7.41667" x2="64.2524" y2="18.3003" gradientUnits="userSpaceOnUse">
<stop stop-color="#E8E8E8"/>
<stop offset="0.125" stop-color="#C4C8CA"/>
<stop offset="0.25" stop-color="#E8E8E8"/>
<stop offset="0.375" stop-color="#C9CCCE"/>
<stop offset="0.5" stop-color="#E8E8E8"/>
<stop offset="0.625" stop-color="#CFD1D2"/>
<stop offset="0.75" stop-color="#E8E8E8"/>
<stop offset="0.875" stop-color="#D3D4D5"/>
<stop offset="1" stop-color="#E8E8E8"/>
</linearGradient>
<linearGradient id="paint14_linear_168_22" x1="-3.49242" y1="95.384" x2="5.75876" y2="49.4377" gradientUnits="userSpaceOnUse">
<stop stop-color="#E8E8E8"/>
<stop offset="0.125" stop-color="#C4C8CA"/>
<stop offset="0.25" stop-color="#E8E8E8"/>
<stop offset="0.375" stop-color="#C9CCCE"/>
<stop offset="0.5" stop-color="#E8E8E8"/>
<stop offset="0.625" stop-color="#CFD1D2"/>
<stop offset="0.75" stop-color="#E8E8E8"/>
<stop offset="0.875" stop-color="#D3D4D5"/>
<stop offset="1" stop-color="#E8E8E8"/>
</linearGradient>
<linearGradient id="paint15_linear_168_22" x1="-18.0164" y1="21.9092" x2="24.392" y2="68.2059" gradientUnits="userSpaceOnUse">
<stop stop-color="#E8E8E8"/>
<stop offset="0.125" stop-color="#C4C8CA"/>
<stop offset="0.25" stop-color="#E8E8E8"/>
<stop offset="0.375" stop-color="#C9CCCE"/>
<stop offset="0.5" stop-color="#E8E8E8"/>
<stop offset="0.625" stop-color="#CFD1D2"/>
<stop offset="0.75" stop-color="#E8E8E8"/>
<stop offset="0.875" stop-color="#D3D4D5"/>
<stop offset="1" stop-color="#E8E8E8"/>
</linearGradient>
<linearGradient id="paint16_linear_168_22" x1="22.8862" y1="129.008" x2="69.2235" y2="86.6436" gradientUnits="userSpaceOnUse">
<stop stop-color="#E8E8E8"/>
<stop offset="0.125" stop-color="#C4C8CA"/>
<stop offset="0.25" stop-color="#E8E8E8"/>
<stop offset="0.375" stop-color="#C9CCCE"/>
<stop offset="0.5" stop-color="#E8E8E8"/>
<stop offset="0.625" stop-color="#CFD1D2"/>
<stop offset="0.75" stop-color="#E8E8E8"/>
<stop offset="0.875" stop-color="#D3D4D5"/>
<stop offset="1" stop-color="#E8E8E8"/>
</linearGradient>
<linearGradient id="paint17_linear_168_22" x1="30.3934" y1="42.1131" x2="32.1611" y2="50.0248" gradientUnits="userSpaceOnUse">
<stop stop-color="#E8E8E8"/>
<stop offset="0.125" stop-color="#C4C8CA"/>
<stop offset="0.25" stop-color="#E8E8E8"/>
<stop offset="0.375" stop-color="#C9CCCE"/>
<stop offset="0.5" stop-color="#E8E8E8"/>
<stop offset="0.625" stop-color="#CFD1D2"/>
<stop offset="0.75" stop-color="#E8E8E8"/>
<stop offset="0.875" stop-color="#D3D4D5"/>
<stop offset="1" stop-color="#E8E8E8"/>
</linearGradient>
<linearGradient id="paint18_linear_168_22" x1="48.5929" y1="42.1131" x2="50.2361" y2="50.0809" gradientUnits="userSpaceOnUse">
<stop stop-color="#E8E8E8"/>
<stop offset="0.125" stop-color="#C4C8CA"/>
<stop offset="0.25" stop-color="#E8E8E8"/>
<stop offset="0.375" stop-color="#C9CCCE"/>
<stop offset="0.5" stop-color="#E8E8E8"/>
<stop offset="0.625" stop-color="#CFD1D2"/>
<stop offset="0.75" stop-color="#E8E8E8"/>
<stop offset="0.875" stop-color="#D3D4D5"/>
<stop offset="1" stop-color="#E8E8E8"/>
</linearGradient>
<linearGradient id="paint19_linear_168_22" x1="55.5956" y1="48.041" x2="58.4728" y2="55.9806" gradientUnits="userSpaceOnUse">
<stop stop-color="#E8E8E8"/>
<stop offset="0.125" stop-color="#C4C8CA"/>
<stop offset="0.25" stop-color="#E8E8E8"/>
<stop offset="0.375" stop-color="#C9CCCE"/>
<stop offset="0.5" stop-color="#E8E8E8"/>
<stop offset="0.625" stop-color="#CFD1D2"/>
<stop offset="0.75" stop-color="#E8E8E8"/>
<stop offset="0.875" stop-color="#D3D4D5"/>
<stop offset="1" stop-color="#E8E8E8"/>
</linearGradient>
<linearGradient id="paint20_linear_168_22" x1="54.1954" y1="46.8558" x2="56.9752" y2="54.9479" gradientUnits="userSpaceOnUse">
<stop stop-color="#E8E8E8"/>
<stop offset="0.125" stop-color="#C4C8CA"/>
<stop offset="0.25" stop-color="#E8E8E8"/>
<stop offset="0.375" stop-color="#C9CCCE"/>
<stop offset="0.5" stop-color="#E8E8E8"/>
<stop offset="0.625" stop-color="#CFD1D2"/>
<stop offset="0.75" stop-color="#E8E8E8"/>
<stop offset="0.875" stop-color="#D3D4D5"/>
<stop offset="1" stop-color="#E8E8E8"/>
</linearGradient>
<linearGradient id="paint21_linear_168_22" x1="60.7978" y1="47.2262" x2="68.7601" y2="53.166" gradientUnits="userSpaceOnUse">
<stop stop-color="#E8E8E8"/>
<stop offset="0.125" stop-color="#C4C8CA"/>
<stop offset="0.25" stop-color="#E8E8E8"/>
<stop offset="0.375" stop-color="#C9CCCE"/>
<stop offset="0.5" stop-color="#E8E8E8"/>
<stop offset="0.625" stop-color="#CFD1D2"/>
<stop offset="0.75" stop-color="#E8E8E8"/>
<stop offset="0.875" stop-color="#D3D4D5"/>
<stop offset="1" stop-color="#E8E8E8"/>
</linearGradient>
<linearGradient id="paint22_linear_168_22" x1="35.6954" y1="46.5765" x2="38.9276" y2="55.2181" gradientUnits="userSpaceOnUse">
<stop stop-color="#E8E8E8"/>
<stop offset="0.125" stop-color="#C4C8CA"/>
<stop offset="0.25" stop-color="#E8E8E8"/>
<stop offset="0.375" stop-color="#C9CCCE"/>
<stop offset="0.5" stop-color="#E8E8E8"/>
<stop offset="0.625" stop-color="#CFD1D2"/>
<stop offset="0.75" stop-color="#E8E8E8"/>
<stop offset="0.875" stop-color="#D3D4D5"/>
<stop offset="1" stop-color="#E8E8E8"/>
</linearGradient>
<linearGradient id="paint23_linear_168_22" x1="32.9945" y1="47.6696" x2="37.3078" y2="58.3951" gradientUnits="userSpaceOnUse">
<stop stop-color="#E8E8E8"/>
<stop offset="0.125" stop-color="#C4C8CA"/>
<stop offset="0.25" stop-color="#E8E8E8"/>
<stop offset="0.375" stop-color="#C9CCCE"/>
<stop offset="0.5" stop-color="#E8E8E8"/>
<stop offset="0.625" stop-color="#CFD1D2"/>
<stop offset="0.75" stop-color="#E8E8E8"/>
<stop offset="0.875" stop-color="#D3D4D5"/>
<stop offset="1" stop-color="#E8E8E8"/>
</linearGradient>
<linearGradient id="paint24_linear_168_22" x1="40.7978" y1="47.2262" x2="48.7601" y2="53.166" gradientUnits="userSpaceOnUse">
<stop stop-color="#E8E8E8"/>
<stop offset="0.125" stop-color="#C4C8CA"/>
<stop offset="0.25" stop-color="#E8E8E8"/>
<stop offset="0.375" stop-color="#C9CCCE"/>
<stop offset="0.5" stop-color="#E8E8E8"/>
<stop offset="0.625" stop-color="#CFD1D2"/>
<stop offset="0.75" stop-color="#E8E8E8"/>
<stop offset="0.875" stop-color="#D3D4D5"/>
<stop offset="1" stop-color="#E8E8E8"/>
</linearGradient>
<linearGradient id="paint25_linear_168_22" x1="46.3962" y1="59.6696" x2="51.7781" y2="69.0377" gradientUnits="userSpaceOnUse">
<stop stop-color="#E8E8E8"/>
<stop offset="0.125" stop-color="#C4C8CA"/>
<stop offset="0.25" stop-color="#E8E8E8"/>
<stop offset="0.375" stop-color="#C9CCCE"/>
<stop offset="0.5" stop-color="#E8E8E8"/>
<stop offset="0.625" stop-color="#CFD1D2"/>
<stop offset="0.75" stop-color="#E8E8E8"/>
<stop offset="0.875" stop-color="#D3D4D5"/>
<stop offset="1" stop-color="#E8E8E8"/>
</linearGradient>
<linearGradient id="paint26_linear_168_22" x1="53.1995" y1="49.0089" x2="56.2766" y2="49.264" gradientUnits="userSpaceOnUse">
<stop stop-color="#E8E8E8"/>
<stop offset="0.125" stop-color="#C4C8CA"/>
<stop offset="0.25" stop-color="#E8E8E8"/>
<stop offset="0.375" stop-color="#C9CCCE"/>
<stop offset="0.5" stop-color="#E8E8E8"/>
<stop offset="0.625" stop-color="#CFD1D2"/>
<stop offset="0.75" stop-color="#E8E8E8"/>
<stop offset="0.875" stop-color="#D3D4D5"/>
<stop offset="1" stop-color="#E8E8E8"/>
</linearGradient>
<linearGradient id="paint27_linear_168_22" x1="41.194" y1="65.2262" x2="47.7375" y2="78.6499" gradientUnits="userSpaceOnUse">
<stop stop-color="#E8E8E8"/>
<stop offset="0.125" stop-color="#C4C8CA"/>
<stop offset="0.25" stop-color="#E8E8E8"/>
<stop offset="0.375" stop-color="#C9CCCE"/>
<stop offset="0.5" stop-color="#E8E8E8"/>
<stop offset="0.625" stop-color="#CFD1D2"/>
<stop offset="0.75" stop-color="#E8E8E8"/>
<stop offset="0.875" stop-color="#D3D4D5"/>
<stop offset="1" stop-color="#E8E8E8"/>
</linearGradient>
</defs>
</svg>
