<svg width="26" height="26" viewBox="0 0 26 26" fill="none" xmlns="http://www.w3.org/2000/svg">
<g id="Instagram">
<path id="Vector 61 (Stroke)" fill-rule="evenodd" clip-rule="evenodd" d="M7.52246 3.64014H18.5447L18.5463 3.64036C19.6351 3.78784 21.9155 4.75241 22.3254 7.43267L22.3257 7.4345V17.4943C22.347 18.3374 22.0749 19.582 21.1889 20.5786C20.3019 21.5763 18.8024 22.3222 16.3757 22.1709L16.3787 22.1223C18.7932 22.2728 20.2771 21.5308 21.1525 20.5462C22.0288 19.5606 22.2981 18.3286 22.277 17.4952L22.277 17.4946V7.43821C21.871 4.79031 19.6188 3.83547 18.5414 3.68888H7.52331C6.1046 3.739 5.17704 4.37404 4.59297 5.14709C4.00842 5.92077 3.76757 6.83334 3.72521 7.43721V17.495C3.69986 18.9959 4.32793 20.0792 5.12368 20.8244C5.91895 21.5691 6.88156 21.9758 7.52561 22.1222H13.4138V22.171H7.52017L7.51751 22.1704C6.86633 22.0229 5.894 21.6125 5.09042 20.8599C4.28627 20.1069 3.65097 19.011 3.67653 17.4944V7.43551L3.67659 7.43466C3.71932 6.82315 3.96264 5.90058 4.55415 5.11768C5.14635 4.33387 6.08721 3.69072 7.52203 3.64015L7.52246 3.64014Z" fill="white" stroke="white"/>
<path id="Vector 62 (Stroke)" fill-rule="evenodd" clip-rule="evenodd" d="M8.15878 1.04874C6.39286 1.04874 5.05127 1.55065 4.60339 1.80004L4.60293 1.80029C1.75971 3.30345 1.04868 6.22683 1.04868 7.49938V18.3744C1.15037 20.7539 2.35554 22.3451 3.82196 23.3683C5.28882 24.3919 7.01656 24.8466 8.15988 24.9513H18.4131C23.1342 24.3994 24.739 20.338 24.9513 18.3736V7.50066C24.697 5.09472 23.5545 3.51894 22.2299 2.5259C20.9048 1.53243 19.397 1.12197 18.4136 1.04874H8.15878ZM4.57996 1.75731C5.0355 1.50374 6.38512 1 8.15878 1H18.4154L18.4163 1.00007C19.4077 1.07371 20.9252 1.48682 22.2591 2.48689C23.5938 3.48751 24.7443 5.07552 24.9999 7.49682L25 7.4981V18.3762L24.9999 18.3775C24.7869 20.3529 23.1728 24.4447 18.4173 24.9998L18.4159 25H8.15767L8.15656 24.9999C7.00667 24.8948 5.26976 24.438 3.79413 23.4083C2.31771 22.3781 1.10233 20.7738 1.00002 18.3759L1 18.3754V7.49938C1 6.21549 1.71582 3.27167 4.57996 1.75731Z" fill="white" stroke="white"/>
<ellipse id="Ellipse 12" cx="14.8501" cy="22.1485" rx="0.486815" ry="0.487394" fill="white"/>
<ellipse id="Ellipse 14" cx="8.86182" cy="8.35556" rx="0.486815" ry="0.487394" fill="white"/>
<path id="Ellipse 13" d="M10.0541 7.42942C11.1251 6.89329 12.3096 6.60659 13.8664 6.81572C15.4233 7.02484 16.8432 7.81686 17.8401 9.03224C18.837 10.2476 19.3368 11.7961 19.239 13.3657C19.1411 14.9353 18.4528 16.4095 17.3126 17.4913C16.1725 18.5731 14.6652 19.1822 13.0945 19.1958C11.5237 19.2095 10.0062 18.6267 8.84745 17.5648C7.68874 16.5029 6.97499 15.0409 6.84995 13.4732C6.72491 11.9055 6.96286 10.963 7.7661 9.74454" stroke="white"/>
<circle id="Ellipse 15" cx="13" cy="13" r="3.5" stroke="white"/>
<circle id="Ellipse 16" cx="19.5" cy="6.5" r="1" stroke="white"/>
</g>
</svg>
