<svg width="26" height="26" viewBox="0 0 26 26" fill="none" xmlns="http://www.w3.org/2000/svg">
<path fill-rule="evenodd" clip-rule="evenodd" d="M7.52246 3.64036H18.5447L18.5463 3.64058C19.6351 3.78806 21.9155 4.75263 22.3254 7.43289L22.3257 7.43473V17.4945C22.347 18.3376 22.0749 19.5823 21.1889 20.5788C20.3019 21.5765 18.8024 22.3224 16.3757 22.1711L16.3787 22.1225C18.7932 22.273 20.2771 21.531 21.1525 20.5464C22.0288 19.5608 22.2981 18.3288 22.277 17.4955L22.277 17.4949V7.43844C21.871 4.79053 19.6188 3.83569 18.5414 3.6891H7.52331C6.1046 3.73922 5.17704 4.37426 4.59297 5.14731C4.00842 5.92099 3.76757 6.83356 3.72521 7.43743V17.4953C3.69986 18.9961 4.32793 20.0794 5.12368 20.8246C5.91895 21.5693 6.88156 21.976 7.52561 22.1224H13.4138V22.1712H7.52017L7.51751 22.1706C6.86633 22.0231 5.894 21.6127 5.09042 20.8602C4.28627 20.1071 3.65097 19.0112 3.67653 17.4946V7.43573L3.67659 7.43488C3.71932 6.82337 3.96264 5.9008 4.55415 5.11791C5.14635 4.3341 6.08721 3.69094 7.52203 3.64037L7.52246 3.64036Z" fill="black" stroke="black"/>
<path fill-rule="evenodd" clip-rule="evenodd" d="M8.15878 1.04874C6.39286 1.04874 5.05127 1.55065 4.60339 1.80004L4.60293 1.80029C1.75971 3.30345 1.04868 6.22683 1.04868 7.49938V18.3744C1.15037 20.7539 2.35554 22.3451 3.82196 23.3683C5.28882 24.3919 7.01656 24.8466 8.15988 24.9513H18.4131C23.1342 24.3994 24.739 20.338 24.9513 18.3736V7.50066C24.697 5.09472 23.5545 3.51894 22.2299 2.5259C20.9048 1.53243 19.397 1.12197 18.4136 1.04874H8.15878ZM4.57996 1.75731C5.0355 1.50374 6.38512 1 8.15878 1H18.4154L18.4163 1.00007C19.4077 1.07371 20.9252 1.48682 22.2591 2.48689C23.5938 3.48751 24.7443 5.07552 24.9999 7.49682L25 7.4981V18.3762L24.9999 18.3775C24.7869 20.3529 23.1728 24.4447 18.4173 24.9998L18.4159 25H8.15767L8.15656 24.9999C7.00667 24.8948 5.26976 24.438 3.79413 23.4083C2.31771 22.3781 1.10233 20.7738 1.00002 18.3759L1 18.3754V7.49938C1 6.21549 1.71582 3.27167 4.57996 1.75731Z" fill="black" stroke="black"/>
<ellipse cx="14.8501" cy="22.1487" rx="0.486815" ry="0.487394" fill="black"/>
<ellipse cx="8.8623" cy="8.35548" rx="0.486815" ry="0.487394" fill="black"/>
<path d="M10.0546 7.42944C11.1256 6.8933 12.3101 6.60661 13.8669 6.81573C15.4238 7.02486 16.8437 7.81687 17.8406 9.03226C18.8375 10.2476 19.3373 11.7961 19.2394 13.3657C19.1416 14.9353 18.4532 16.4095 17.3131 17.4913C16.173 18.5731 14.6657 19.1822 13.095 19.1958C11.5242 19.2095 10.0066 18.6267 8.84794 17.5648C7.68923 16.503 6.97548 15.0409 6.85044 13.4733C6.72539 11.9056 6.96335 10.963 7.76659 9.74456" stroke="black"/>
<circle cx="13" cy="13" r="3.5" stroke="black"/>
<circle cx="19.5" cy="6.5" r="1" stroke="black"/>
</svg>
