<svg width="26" height="26" viewBox="0 0 26 26" fill="none" xmlns="http://www.w3.org/2000/svg">
<path d="M17.3355 20.5204C17.8726 20.2081 18.0068 18.6334 18.0068 17.8852V8.80817C20.737 10.526 23.8065 10.8578 25 10.809V7.10013C19.5398 6.74876 18.0628 2.88697 18.0068 1H13.4752V17.8852C13.4007 18.9913 12.4123 21.1353 9.05554 20.862C7.75014 20.6668 5.24005 19.5932 5.64286 16.8603C5.81069 15.7542 7.06387 13.6297 10.7339 13.9811V10.1258C9.98796 9.89806 8.13803 9.64754 6.70582 10.4674" stroke="black"/>
<path d="M3.12526 12.517C1.52149 14.16 -0.723795 18.4513 3.12526 22.4725C6.97432 26.4937 12.2631 24.8312 14.4263 23.4973" stroke="black"/>
<ellipse cx="4.8036" cy="11.297" rx="0.559456" ry="0.48801" fill="black"/>
<ellipse cx="16.1049" cy="22.1308" rx="0.559456" ry="0.48801" fill="black"/>
</svg>
