<svg width="55" height="116" viewBox="0 0 55 116" fill="none" xmlns="http://www.w3.org/2000/svg">
<g id="moon">
<path id="Vector 40" d="M-41.9905 35.3085C-13.3653 -16.6186 34.0697 1.72197 54.209 17.3831C34.8127 5.1561 15.7553 8.38897 8.6511 11.5338C-12.3094 18.7794 -15.2032 30.4026 -14.0301 35.3085C-12.6223 41.4975 -14.6167 43.548 -15.7898 43.7995C-16.5719 45.9129 -13.1176 50.0892 -11.2927 51.9132C-8.32067 57.6493 -7.96873 60.5928 -8.16425 61.3476C-9.72847 62.1023 -12.2052 62.4168 -13.248 62.4797C-14.1865 64.1402 -13.639 65.0585 -13.248 65.3101C-11.8402 66.3667 -12.6614 67.6372 -13.248 68.1404C-10.7452 69.4989 -11.8141 71.3481 -12.6614 72.1028C-8.75084 75.5747 -8.55531 80.2165 -8.94636 82.1033C4.3495 110.935 38.6971 104.557 54.209 97.7645C3.52828 135.804 -31.041 101.916 -41.9905 80.2165C-51.063 59.6871 -45.7707 41.724 -41.9905 35.3085Z" stroke="url(#paint0_linear_27_216)"/>
</g>
<defs>
<linearGradient id="paint0_linear_27_216" x1="135.231" y1="-49.531" x2="-82.6808" y2="94.8533" gradientUnits="userSpaceOnUse">
<stop stop-color="#E8E8E8"/>
<stop offset="0.125" stop-color="#C4C8CA"/>
<stop offset="0.25" stop-color="#E8E8E8"/>
<stop offset="0.375" stop-color="#C9CCCE"/>
<stop offset="0.5" stop-color="#E8E8E8"/>
<stop offset="0.625" stop-color="#CFD1D2"/>
<stop offset="0.75" stop-color="#E8E8E8"/>
<stop offset="0.875" stop-color="#D3D4D5"/>
<stop offset="1" stop-color="#E8E8E8"/>
</linearGradient>
</defs>
</svg>
