<svg width="65" height="129" viewBox="0 0 65 129" fill="none" xmlns="http://www.w3.org/2000/svg">
<g id="sun">
<circle id="Ellipse 1" cx="64.8215" cy="64.2417" r="28.51" stroke="url(#paint0_linear_27_103)"/>
<path id="Vector 2" d="M60.7607 35.812L64.8221 1L68.8835 35.812" stroke="url(#paint1_linear_27_103)"/>
<path id="Vector 14" d="M42.8757 46.136L20.0441 19.545L48.576 41.0337" stroke="url(#paint2_linear_27_103)"/>
<path id="Vector 9" d="M69.4639 92.6714L65.4025 128.064L61.3411 92.6714" stroke="url(#paint3_linear_27_103)"/>
<path id="Vector 16" d="M47.4163 86.8695L19.6861 109.58L42.1549 81.6477" stroke="url(#paint4_linear_27_103)"/>
<path id="Vector 15" d="M36.3922 68.3031L1 64.2417L36.3922 60.7605" stroke="url(#paint5_linear_27_103)"/>
<path id="Vector 10" d="M60.1806 36.3921C59.7938 34.2647 57.0476 28.8495 49.1569 24.2079C47.2229 22.274 43.4709 17.3616 43.9351 13.1842C43.3549 11.4436 41.1501 7.61425 36.9727 6.22177C38.9067 8.54257 42.5426 13.7644 41.6143 16.0852C41.0341 18.406 40.2218 23.6277 41.6143 25.9485C42.7746 28.2693 46.4879 34.0713 52.0578 38.7129" stroke="url(#paint6_linear_27_103)"/>
<path id="Vector 12" d="M36.3922 68.3031C34.3788 69.0915 29.5677 71.2715 26.5288 79.9071C25.0025 82.1767 17.4639 84.7427 13.2751 85.0899C11.6784 85.9937 8.34411 88.8932 7.78027 93.2604C9.68621 90.9165 13.6293 87.5648 16.0852 88.0299C18.4743 88.1533 25.6792 88.6225 27.6892 86.81C29.7438 85.2253 35.8084 82.2037 39.2932 75.8457" stroke="url(#paint7_linear_27_103)"/>
<path id="Vector 11" d="M41.6137 47.9961C39.0995 48.1895 33.4909 47.8801 31.1701 45.0951C29.4295 43.1611 24.5559 39.5252 18.9859 40.4535C16.8585 40.8403 11.4434 40.5696 6.80176 36.3922C6.99516 37.9393 8.89048 41.6139 14.9245 43.9347C18.4057 44.5149 25.6002 46.6037 26.5285 50.3169C27.6889 52.8311 31.2862 58.3237 36.3919 60.1803" stroke="url(#paint8_linear_27_103)"/>
<path id="Vector 13" d="M48.61 87.4608C48.801 89.9752 48.4861 95.5835 45.699 97.9016C43.7633 99.6404 40.1227 104.511 41.0457 110.081C41.4305 112.209 41.1545 117.624 36.9727 122.262C38.52 122.07 42.1964 120.178 44.523 114.146C45.1066 110.665 47.2022 103.473 50.9163 102.548C53.4316 101.39 58.9276 97.7983 60.7891 92.6943" stroke="url(#paint9_linear_27_103)"/>
<path id="Vector 22" d="M46.2559 52.6378C49.1703 50.8864 56.0356 48.4346 60.1806 52.6378" stroke="url(#paint10_linear_27_103)"/>
<g id="eye left">
<path id="Vector 26" d="M59.0196 58.4398C56.7671 55.8883 51.477 53.7982 49.1562 58.4397" stroke="url(#paint11_linear_27_103)" stroke-linecap="round"/>
<path id="Vector 27" d="M59.02 60.7605C57.0307 58.1335 52.1239 54.4557 48.4106 60.7605H47.416" stroke="url(#paint12_linear_27_103)" stroke-linecap="round"/>
<circle id="Ellipse 3" cx="53.2183" cy="59.6001" r="1.8208" stroke="url(#paint13_linear_27_103)"/>
</g>
<g id="nose">
<path id="Vector 29" d="M60.9414 71.2042C60.1441 71.9189 59.2889 73.4263 62.2459 73.7382C62.8982 74.453 64.5072 75.4536 65.7248 73.7382C67.1018 73.8682 69.421 73.5823 67.6816 71.3991" stroke="url(#paint14_linear_27_103)" stroke-linecap="round"/>
<path id="Vector 28" d="M63.6624 61.921V68.505C62.7771 69.1861 61.9365 70.9115 62.9988 72.3645" stroke="url(#paint15_linear_27_103)" stroke-linecap="round"/>
</g>
<path id="Vector 31" d="M57.8594 79.8149H59.3789M70.6238 79.8149H68.8003M59.3789 79.8149C60.392 78.7174 62.7828 77.0611 64.2416 79.2162C64.8494 78.3183 66.6121 77.1808 68.8003 79.8149M59.3789 79.8149H68.8003M59.3789 79.8149C59.9868 80.8126 61.8103 82.8081 64.2416 82.8081C66.6729 82.8081 68.2938 80.8126 68.8003 79.8149" stroke="url(#paint16_linear_27_103)" stroke-linecap="round"/>
</g>
<defs>
<linearGradient id="paint0_linear_27_103" x1="-10.6361" y1="9.50271" x2="104.857" y2="95.6591" gradientUnits="userSpaceOnUse">
<stop stop-color="#E8E8E8"/>
<stop offset="0.125" stop-color="#C4C8CA"/>
<stop offset="0.25" stop-color="#E8E8E8"/>
<stop offset="0.375" stop-color="#C9CCCE"/>
<stop offset="0.5" stop-color="#E8E8E8"/>
<stop offset="0.625" stop-color="#CFD1D2"/>
<stop offset="0.75" stop-color="#E8E8E8"/>
<stop offset="0.875" stop-color="#D3D4D5"/>
<stop offset="1" stop-color="#E8E8E8"/>
</linearGradient>
<linearGradient id="paint1_linear_27_103" x1="54.2581" y1="-14.4374" x2="78.6851" y2="-10.1856" gradientUnits="userSpaceOnUse">
<stop stop-color="#E8E8E8"/>
<stop offset="0.125" stop-color="#C4C8CA"/>
<stop offset="0.25" stop-color="#E8E8E8"/>
<stop offset="0.375" stop-color="#C9CCCE"/>
<stop offset="0.5" stop-color="#E8E8E8"/>
<stop offset="0.625" stop-color="#CFD1D2"/>
<stop offset="0.75" stop-color="#E8E8E8"/>
<stop offset="0.875" stop-color="#D3D4D5"/>
<stop offset="1" stop-color="#E8E8E8"/>
</linearGradient>
<linearGradient id="paint2_linear_27_103" x1="1.57215" y1="16.3232" x2="19.8762" y2="1.90731" gradientUnits="userSpaceOnUse">
<stop stop-color="#E8E8E8"/>
<stop offset="0.125" stop-color="#C4C8CA"/>
<stop offset="0.25" stop-color="#E8E8E8"/>
<stop offset="0.375" stop-color="#C9CCCE"/>
<stop offset="0.5" stop-color="#E8E8E8"/>
<stop offset="0.625" stop-color="#CFD1D2"/>
<stop offset="0.75" stop-color="#E8E8E8"/>
<stop offset="0.875" stop-color="#D3D4D5"/>
<stop offset="1" stop-color="#E8E8E8"/>
</linearGradient>
<linearGradient id="paint3_linear_27_103" x1="75.9665" y1="143.758" x2="51.5162" y2="139.572" gradientUnits="userSpaceOnUse">
<stop stop-color="#E8E8E8"/>
<stop offset="0.125" stop-color="#C4C8CA"/>
<stop offset="0.25" stop-color="#E8E8E8"/>
<stop offset="0.375" stop-color="#C9CCCE"/>
<stop offset="0.5" stop-color="#E8E8E8"/>
<stop offset="0.625" stop-color="#CFD1D2"/>
<stop offset="0.75" stop-color="#E8E8E8"/>
<stop offset="0.875" stop-color="#D3D4D5"/>
<stop offset="1" stop-color="#E8E8E8"/>
</linearGradient>
<linearGradient id="paint4_linear_27_103" x1="15.7569" y1="127.849" x2="2.12285" y2="109.705" gradientUnits="userSpaceOnUse">
<stop stop-color="#E8E8E8"/>
<stop offset="0.125" stop-color="#C4C8CA"/>
<stop offset="0.25" stop-color="#E8E8E8"/>
<stop offset="0.375" stop-color="#C9CCCE"/>
<stop offset="0.5" stop-color="#E8E8E8"/>
<stop offset="0.625" stop-color="#CFD1D2"/>
<stop offset="0.75" stop-color="#E8E8E8"/>
<stop offset="0.875" stop-color="#D3D4D5"/>
<stop offset="1" stop-color="#E8E8E8"/>
</linearGradient>
<linearGradient id="paint5_linear_27_103" x1="-14.6947" y1="74.3413" x2="-11.071" y2="51.548" gradientUnits="userSpaceOnUse">
<stop stop-color="#E8E8E8"/>
<stop offset="0.125" stop-color="#C4C8CA"/>
<stop offset="0.25" stop-color="#E8E8E8"/>
<stop offset="0.375" stop-color="#C9CCCE"/>
<stop offset="0.5" stop-color="#E8E8E8"/>
<stop offset="0.625" stop-color="#CFD1D2"/>
<stop offset="0.75" stop-color="#E8E8E8"/>
<stop offset="0.875" stop-color="#D3D4D5"/>
<stop offset="1" stop-color="#E8E8E8"/>
</linearGradient>
<linearGradient id="paint6_linear_27_103" x1="18.3936" y1="-8.18651" x2="74.3983" y2="21.6555" gradientUnits="userSpaceOnUse">
<stop stop-color="#E8E8E8"/>
<stop offset="0.125" stop-color="#C4C8CA"/>
<stop offset="0.25" stop-color="#E8E8E8"/>
<stop offset="0.375" stop-color="#C9CCCE"/>
<stop offset="0.5" stop-color="#E8E8E8"/>
<stop offset="0.625" stop-color="#CFD1D2"/>
<stop offset="0.75" stop-color="#E8E8E8"/>
<stop offset="0.875" stop-color="#D3D4D5"/>
<stop offset="1" stop-color="#E8E8E8"/>
</linearGradient>
<linearGradient id="paint7_linear_27_103" x1="-4.21267" y1="111.103" x2="6.52238" y2="57.7872" gradientUnits="userSpaceOnUse">
<stop stop-color="#E8E8E8"/>
<stop offset="0.125" stop-color="#C4C8CA"/>
<stop offset="0.25" stop-color="#E8E8E8"/>
<stop offset="0.375" stop-color="#C9CCCE"/>
<stop offset="0.5" stop-color="#E8E8E8"/>
<stop offset="0.625" stop-color="#CFD1D2"/>
<stop offset="0.75" stop-color="#E8E8E8"/>
<stop offset="0.875" stop-color="#D3D4D5"/>
<stop offset="1" stop-color="#E8E8E8"/>
</linearGradient>
<linearGradient id="paint8_linear_27_103" x1="-21.0668" y1="25.8432" x2="28.1438" y2="79.5658" gradientUnits="userSpaceOnUse">
<stop stop-color="#E8E8E8"/>
<stop offset="0.125" stop-color="#C4C8CA"/>
<stop offset="0.25" stop-color="#E8E8E8"/>
<stop offset="0.375" stop-color="#C9CCCE"/>
<stop offset="0.5" stop-color="#E8E8E8"/>
<stop offset="0.625" stop-color="#CFD1D2"/>
<stop offset="0.75" stop-color="#E8E8E8"/>
<stop offset="0.875" stop-color="#D3D4D5"/>
<stop offset="1" stop-color="#E8E8E8"/>
</linearGradient>
<linearGradient id="paint9_linear_27_103" x1="26.3971" y1="150.12" x2="80.1667" y2="100.961" gradientUnits="userSpaceOnUse">
<stop stop-color="#E8E8E8"/>
<stop offset="0.125" stop-color="#C4C8CA"/>
<stop offset="0.25" stop-color="#E8E8E8"/>
<stop offset="0.375" stop-color="#C9CCCE"/>
<stop offset="0.5" stop-color="#E8E8E8"/>
<stop offset="0.625" stop-color="#CFD1D2"/>
<stop offset="0.75" stop-color="#E8E8E8"/>
<stop offset="0.875" stop-color="#D3D4D5"/>
<stop offset="1" stop-color="#E8E8E8"/>
</linearGradient>
<linearGradient id="paint10_linear_27_103" x1="35.1084" y1="49.2878" x2="37.1596" y2="58.4686" gradientUnits="userSpaceOnUse">
<stop stop-color="#E8E8E8"/>
<stop offset="0.125" stop-color="#C4C8CA"/>
<stop offset="0.25" stop-color="#E8E8E8"/>
<stop offset="0.375" stop-color="#C9CCCE"/>
<stop offset="0.5" stop-color="#E8E8E8"/>
<stop offset="0.625" stop-color="#CFD1D2"/>
<stop offset="0.75" stop-color="#E8E8E8"/>
<stop offset="0.875" stop-color="#D3D4D5"/>
<stop offset="1" stop-color="#E8E8E8"/>
</linearGradient>
<linearGradient id="paint11_linear_27_103" x1="41.2602" y1="54.4672" x2="45.0109" y2="64.4949" gradientUnits="userSpaceOnUse">
<stop stop-color="#E8E8E8"/>
<stop offset="0.125" stop-color="#C4C8CA"/>
<stop offset="0.25" stop-color="#E8E8E8"/>
<stop offset="0.375" stop-color="#C9CCCE"/>
<stop offset="0.5" stop-color="#E8E8E8"/>
<stop offset="0.625" stop-color="#CFD1D2"/>
<stop offset="0.75" stop-color="#E8E8E8"/>
<stop offset="0.875" stop-color="#D3D4D5"/>
<stop offset="1" stop-color="#E8E8E8"/>
</linearGradient>
<linearGradient id="paint12_linear_27_103" x1="38.1265" y1="55.7356" x2="43.1316" y2="68.1813" gradientUnits="userSpaceOnUse">
<stop stop-color="#E8E8E8"/>
<stop offset="0.125" stop-color="#C4C8CA"/>
<stop offset="0.25" stop-color="#E8E8E8"/>
<stop offset="0.375" stop-color="#C9CCCE"/>
<stop offset="0.5" stop-color="#E8E8E8"/>
<stop offset="0.625" stop-color="#CFD1D2"/>
<stop offset="0.75" stop-color="#E8E8E8"/>
<stop offset="0.875" stop-color="#D3D4D5"/>
<stop offset="1" stop-color="#E8E8E8"/>
</linearGradient>
<linearGradient id="paint13_linear_27_103" x1="47.1816" y1="55.221" x2="56.4211" y2="62.1135" gradientUnits="userSpaceOnUse">
<stop stop-color="#E8E8E8"/>
<stop offset="0.125" stop-color="#C4C8CA"/>
<stop offset="0.25" stop-color="#E8E8E8"/>
<stop offset="0.375" stop-color="#C9CCCE"/>
<stop offset="0.5" stop-color="#E8E8E8"/>
<stop offset="0.625" stop-color="#CFD1D2"/>
<stop offset="0.75" stop-color="#E8E8E8"/>
<stop offset="0.875" stop-color="#D3D4D5"/>
<stop offset="1" stop-color="#E8E8E8"/>
</linearGradient>
<linearGradient id="paint14_linear_27_103" x1="53.678" y1="69.6604" x2="59.9232" y2="80.5311" gradientUnits="userSpaceOnUse">
<stop stop-color="#E8E8E8"/>
<stop offset="0.125" stop-color="#C4C8CA"/>
<stop offset="0.25" stop-color="#E8E8E8"/>
<stop offset="0.375" stop-color="#C9CCCE"/>
<stop offset="0.5" stop-color="#E8E8E8"/>
<stop offset="0.625" stop-color="#CFD1D2"/>
<stop offset="0.75" stop-color="#E8E8E8"/>
<stop offset="0.875" stop-color="#D3D4D5"/>
<stop offset="1" stop-color="#E8E8E8"/>
</linearGradient>
<linearGradient id="paint15_linear_27_103" x1="61.573" y1="57.2897" x2="65.1438" y2="57.5857" gradientUnits="userSpaceOnUse">
<stop stop-color="#E8E8E8"/>
<stop offset="0.125" stop-color="#C4C8CA"/>
<stop offset="0.25" stop-color="#E8E8E8"/>
<stop offset="0.375" stop-color="#C9CCCE"/>
<stop offset="0.5" stop-color="#E8E8E8"/>
<stop offset="0.625" stop-color="#CFD1D2"/>
<stop offset="0.75" stop-color="#E8E8E8"/>
<stop offset="0.875" stop-color="#D3D4D5"/>
<stop offset="1" stop-color="#E8E8E8"/>
</linearGradient>
<linearGradient id="paint16_linear_27_103" x1="47.6409" y1="76.1082" x2="55.2339" y2="91.685" gradientUnits="userSpaceOnUse">
<stop stop-color="#E8E8E8"/>
<stop offset="0.125" stop-color="#C4C8CA"/>
<stop offset="0.25" stop-color="#E8E8E8"/>
<stop offset="0.375" stop-color="#C9CCCE"/>
<stop offset="0.5" stop-color="#E8E8E8"/>
<stop offset="0.625" stop-color="#CFD1D2"/>
<stop offset="0.75" stop-color="#E8E8E8"/>
<stop offset="0.875" stop-color="#D3D4D5"/>
<stop offset="1" stop-color="#E8E8E8"/>
</linearGradient>
</defs>
</svg>
