<svg width="141" height="133" viewBox="0 0 141 133" fill="none" xmlns="http://www.w3.org/2000/svg">
<g id="Pisces zodiac sign">
<path id="Vector 49" d="M127.091 59.7536L113.771 36.0083L97.6159 36.037L89.9685 17.0168L80.5612 0.320966L69.9294 -26.1217L55.2278 -43.9223L57.8774 -15.887L59.6614 -4.74846L64.0662 18.27L55.3716 36.855L37.8054 78.9463L16.944 95.4175M16.944 95.4175L11.4058 113.811L-3.16659 116.437L-15.0656 108.287L-20.4747 94.8342L-7.3084 84.6903L12.8309 79.8264L16.944 95.4175Z" stroke="url(#paint0_linear_27_135)" stroke-dasharray="2 2"/>
<path id="four pointed star / bold" d="M126.67 61.5754L126.585 61.3392L126.334 61.3439L122.369 61.418L126.101 60.0759L126.337 59.991L126.332 59.74L126.258 55.7746L127.6 59.5068L127.685 59.743L127.936 59.7383L131.902 59.6641L128.169 61.0062L127.933 61.0911L127.938 61.3421L128.012 65.3076L126.67 61.5754Z" fill="url(#paint1_linear_27_135)" stroke="url(#paint2_linear_27_135)" stroke-width="0.7"/>
<path id="four pointed star / bold_2" d="M112.823 37.9614L112.786 37.7133L112.538 37.6693L108.634 36.9748L112.555 36.3802L112.803 36.3426L112.847 36.0954L113.542 32.1906L114.136 36.1119L114.174 36.3601L114.421 36.404L118.326 37.0986L114.404 37.6931L114.156 37.7308L114.112 37.9779L113.418 41.8828L112.823 37.9614Z" fill="url(#paint3_linear_27_135)" stroke="url(#paint4_linear_27_135)" stroke-width="0.7"/>
<path id="four pointed star / bold_3" d="M97.0778 36.6491L96.9643 36.4252L96.7159 36.4609L92.7899 37.0245L96.3277 35.2315L96.5516 35.118L96.5159 34.8696L95.9523 30.9437L97.7453 34.4814L97.8588 34.7053L98.1072 34.6696L102.033 34.106L98.4954 35.899L98.2715 36.0125L98.3072 36.261L98.8708 40.1869L97.0778 36.6491Z" fill="url(#paint5_linear_27_135)" stroke="url(#paint6_linear_27_135)" stroke-width="0.7"/>
<path id="four pointed star / bold_4" d="M88.49 17.5924L88.4511 17.3444L88.2038 17.3017L84.2954 16.6272L88.2137 16.0126L88.4616 15.9737L88.5043 15.7263L89.1789 11.818L89.7935 15.7362L89.8324 15.9842L90.0797 16.0269L93.9881 16.7015L90.0699 17.316L89.8219 17.3549L89.7792 17.6023L89.1046 21.5107L88.49 17.5924Z" fill="url(#paint7_linear_27_135)" stroke="url(#paint8_linear_27_135)" stroke-width="0.7"/>
<path id="four pointed star / bold_5" d="M80.6658 3.49347L80.6269 3.24549L80.3796 3.2028L76.4712 2.52821L80.3895 1.91363L80.6374 1.87474L80.6801 1.62739L81.3547 -2.28098L81.9693 1.63728L82.0082 1.88525L82.2555 1.92794L86.1639 2.60253L82.2456 3.21711L81.9977 3.256L81.955 3.50335L81.2804 7.41172L80.6658 3.49347Z" fill="url(#paint9_linear_27_135)" stroke="url(#paint10_linear_27_135)" stroke-width="0.7"/>
<path id="four pointed star / bold_6" d="M59.3426 -3.44139L59.1456 -3.59687L58.9351 -3.4601L55.6095 -1.29894L58.0663 -4.41256L58.2217 -4.60961L58.085 -4.82007L55.9238 -8.1457L59.0374 -5.68891L59.2345 -5.53343L59.4449 -5.6702L62.7706 -7.83137L60.3138 -4.71775L60.1583 -4.5207L60.2951 -4.31023L62.4562 -0.984603L59.3426 -3.44139Z" fill="url(#paint11_linear_27_135)" stroke="url(#paint12_linear_27_135)" stroke-width="0.7"/>
<path id="four pointed star / bold_7" d="M62.8195 20.4873L62.775 20.2403L62.5268 20.2032L58.6042 19.617L62.5076 18.9141L62.7546 18.8696L62.7917 18.6214L63.3779 14.6988L64.0807 18.6021L64.1252 18.8492L64.3735 18.8863L68.2961 19.4725L64.3927 20.1753L64.1457 20.2198L64.1086 20.4681L63.5224 24.3907L62.8195 20.4873Z" fill="url(#paint13_linear_27_135)" stroke="url(#paint14_linear_27_135)" stroke-width="0.7"/>
<path id="four pointed star / bold_8" d="M55.0529 38.6993L55.0084 38.4522L54.7602 38.4151L50.8376 37.829L54.741 37.1261L54.988 37.0816L55.0251 36.8333L55.6113 32.9107L56.3141 36.8141L56.3586 37.0612L56.6069 37.0983L60.5295 37.6844L56.6261 38.3873L56.3791 38.4318L56.342 38.68L55.7558 42.6026L55.0529 38.6993Z" fill="url(#paint15_linear_27_135)" stroke="url(#paint16_linear_27_135)" stroke-width="0.7"/>
<path id="four pointed star / bold_9" d="M37.2622 80.2098L37.0799 80.0373L36.858 80.1546L33.3519 82.0087L36.0782 79.1281L36.2507 78.9458L36.1334 78.7239L34.2793 75.2178L37.1599 77.944L37.3422 78.1165L37.5641 77.9992L41.0702 76.1451L38.344 79.0258L38.1715 79.2081L38.2888 79.43L40.1429 82.9361L37.2622 80.2098Z" fill="url(#paint17_linear_27_135)" stroke="url(#paint18_linear_27_135)" stroke-width="0.7"/>
<path id="four pointed star / bold_10" d="M17.4243 97.8862L17.242 97.7137L17.0201 97.831L13.514 99.6851L16.2403 96.8045L16.4128 96.6222L16.2955 96.4003L14.4414 92.8942L17.322 95.6204L17.5043 95.7929L17.7262 95.6756L21.2323 93.8215L18.5061 96.7022L18.3336 96.8845L18.4509 97.1064L20.305 100.612L17.4243 97.8862Z" fill="url(#paint19_linear_27_135)" stroke="url(#paint20_linear_27_135)" stroke-width="0.7"/>
<path id="four pointed star / bold_11" d="M10.2124 114.797L10.0301 114.625L9.80823 114.742L6.30211 116.596L9.02835 113.716L9.20088 113.533L9.08355 113.311L7.22949 109.805L10.1101 112.532L10.2924 112.704L10.5143 112.587L14.0204 110.733L11.2942 113.613L11.1217 113.796L11.239 114.018L13.0931 117.524L10.2124 114.797Z" fill="url(#paint21_linear_27_135)" stroke="url(#paint22_linear_27_135)" stroke-width="0.7"/>
<path id="four pointed star / bold_12" d="M-4.23456 115.658L-4.36329 115.443L-4.60867 115.496L-8.48607 116.33L-5.08113 114.296L-4.86565 114.167L-4.91845 113.922L-5.75287 110.045L-3.71894 113.45L-3.59022 113.665L-3.34483 113.612L0.532562 112.778L-2.87237 114.812L-3.08786 114.94L-3.03505 115.186L-2.20064 119.063L-4.23456 115.658Z" fill="url(#paint23_linear_27_135)" stroke="url(#paint24_linear_27_135)" stroke-width="0.7"/>
<path id="four pointed star / bold_13" d="M12.0969 81.7739L12.1194 81.5239L11.8898 81.4224L8.26213 79.8192L12.2124 80.1742L12.4624 80.1967L12.5638 79.9671L14.1671 76.3394L13.812 80.2896L13.7896 80.5396L14.0191 80.6411L17.6468 82.2443L13.6966 81.8893L13.4466 81.8668L13.3451 82.0964L11.7419 85.7241L12.0969 81.7739Z" fill="url(#paint25_linear_27_135)" stroke="url(#paint26_linear_27_135)" stroke-width="0.7"/>
</g>
<defs>
<linearGradient id="paint0_linear_27_135" x1="262.621" y1="74.94" x2="-70.788" y2="-38.6717" gradientUnits="userSpaceOnUse">
<stop stop-color="#E8E8E8"/>
<stop offset="0.125" stop-color="#C4C8CA"/>
<stop offset="0.25" stop-color="#E8E8E8"/>
<stop offset="0.375" stop-color="#C9CCCE"/>
<stop offset="0.5" stop-color="#E8E8E8"/>
<stop offset="0.625" stop-color="#CFD1D2"/>
<stop offset="0.75" stop-color="#E8E8E8"/>
<stop offset="0.875" stop-color="#D3D4D5"/>
<stop offset="1" stop-color="#E8E8E8"/>
</linearGradient>
<linearGradient id="paint1_linear_27_135" x1="147.432" y1="70.2369" x2="116.262" y2="54.8333" gradientUnits="userSpaceOnUse">
<stop stop-color="#E8E8E8"/>
<stop offset="0.125" stop-color="#C4C8CA"/>
<stop offset="0.25" stop-color="#E8E8E8"/>
<stop offset="0.375" stop-color="#C9CCCE"/>
<stop offset="0.5" stop-color="#E8E8E8"/>
<stop offset="0.625" stop-color="#CFD1D2"/>
<stop offset="0.75" stop-color="#E8E8E8"/>
<stop offset="0.875" stop-color="#D3D4D5"/>
<stop offset="1" stop-color="#E8E8E8"/>
</linearGradient>
<linearGradient id="paint2_linear_27_135" x1="147.432" y1="70.2369" x2="116.262" y2="54.8333" gradientUnits="userSpaceOnUse">
<stop stop-color="#E8E8E8"/>
<stop offset="0.125" stop-color="#C4C8CA"/>
<stop offset="0.25" stop-color="#E8E8E8"/>
<stop offset="0.375" stop-color="#C9CCCE"/>
<stop offset="0.5" stop-color="#E8E8E8"/>
<stop offset="0.625" stop-color="#CFD1D2"/>
<stop offset="0.75" stop-color="#E8E8E8"/>
<stop offset="0.875" stop-color="#D3D4D5"/>
<stop offset="1" stop-color="#E8E8E8"/>
</linearGradient>
<linearGradient id="paint3_linear_27_135" x1="131.517" y1="50.4764" x2="103.917" y2="29.333" gradientUnits="userSpaceOnUse">
<stop stop-color="#E8E8E8"/>
<stop offset="0.125" stop-color="#C4C8CA"/>
<stop offset="0.25" stop-color="#E8E8E8"/>
<stop offset="0.375" stop-color="#C9CCCE"/>
<stop offset="0.5" stop-color="#E8E8E8"/>
<stop offset="0.625" stop-color="#CFD1D2"/>
<stop offset="0.75" stop-color="#E8E8E8"/>
<stop offset="0.875" stop-color="#D3D4D5"/>
<stop offset="1" stop-color="#E8E8E8"/>
</linearGradient>
<linearGradient id="paint4_linear_27_135" x1="131.517" y1="50.4764" x2="103.917" y2="29.333" gradientUnits="userSpaceOnUse">
<stop stop-color="#E8E8E8"/>
<stop offset="0.125" stop-color="#C4C8CA"/>
<stop offset="0.25" stop-color="#E8E8E8"/>
<stop offset="0.375" stop-color="#C9CCCE"/>
<stop offset="0.5" stop-color="#E8E8E8"/>
<stop offset="0.625" stop-color="#CFD1D2"/>
<stop offset="0.75" stop-color="#E8E8E8"/>
<stop offset="0.875" stop-color="#D3D4D5"/>
<stop offset="1" stop-color="#E8E8E8"/>
</linearGradient>
<linearGradient id="paint5_linear_27_135" x1="118.751" y1="42.6786" x2="85.9168" y2="31.2448" gradientUnits="userSpaceOnUse">
<stop stop-color="#E8E8E8"/>
<stop offset="0.125" stop-color="#C4C8CA"/>
<stop offset="0.25" stop-color="#E8E8E8"/>
<stop offset="0.375" stop-color="#C9CCCE"/>
<stop offset="0.5" stop-color="#E8E8E8"/>
<stop offset="0.625" stop-color="#CFD1D2"/>
<stop offset="0.75" stop-color="#E8E8E8"/>
<stop offset="0.875" stop-color="#D3D4D5"/>
<stop offset="1" stop-color="#E8E8E8"/>
</linearGradient>
<linearGradient id="paint6_linear_27_135" x1="118.751" y1="42.6786" x2="85.9168" y2="31.2448" gradientUnits="userSpaceOnUse">
<stop stop-color="#E8E8E8"/>
<stop offset="0.125" stop-color="#C4C8CA"/>
<stop offset="0.25" stop-color="#E8E8E8"/>
<stop offset="0.375" stop-color="#C9CCCE"/>
<stop offset="0.5" stop-color="#E8E8E8"/>
<stop offset="0.625" stop-color="#CFD1D2"/>
<stop offset="0.75" stop-color="#E8E8E8"/>
<stop offset="0.875" stop-color="#D3D4D5"/>
<stop offset="1" stop-color="#E8E8E8"/>
</linearGradient>
<linearGradient id="paint7_linear_27_135" x1="107.248" y1="30.0119" x2="79.5397" y2="9.00957" gradientUnits="userSpaceOnUse">
<stop stop-color="#E8E8E8"/>
<stop offset="0.125" stop-color="#C4C8CA"/>
<stop offset="0.25" stop-color="#E8E8E8"/>
<stop offset="0.375" stop-color="#C9CCCE"/>
<stop offset="0.5" stop-color="#E8E8E8"/>
<stop offset="0.625" stop-color="#CFD1D2"/>
<stop offset="0.75" stop-color="#E8E8E8"/>
<stop offset="0.875" stop-color="#D3D4D5"/>
<stop offset="1" stop-color="#E8E8E8"/>
</linearGradient>
<linearGradient id="paint8_linear_27_135" x1="107.248" y1="30.0119" x2="79.5397" y2="9.00957" gradientUnits="userSpaceOnUse">
<stop stop-color="#E8E8E8"/>
<stop offset="0.125" stop-color="#C4C8CA"/>
<stop offset="0.25" stop-color="#E8E8E8"/>
<stop offset="0.375" stop-color="#C9CCCE"/>
<stop offset="0.5" stop-color="#E8E8E8"/>
<stop offset="0.625" stop-color="#CFD1D2"/>
<stop offset="0.75" stop-color="#E8E8E8"/>
<stop offset="0.875" stop-color="#D3D4D5"/>
<stop offset="1" stop-color="#E8E8E8"/>
</linearGradient>
<linearGradient id="paint9_linear_27_135" x1="99.4234" y1="15.9129" x2="71.7155" y2="-5.08937" gradientUnits="userSpaceOnUse">
<stop stop-color="#E8E8E8"/>
<stop offset="0.125" stop-color="#C4C8CA"/>
<stop offset="0.25" stop-color="#E8E8E8"/>
<stop offset="0.375" stop-color="#C9CCCE"/>
<stop offset="0.5" stop-color="#E8E8E8"/>
<stop offset="0.625" stop-color="#CFD1D2"/>
<stop offset="0.75" stop-color="#E8E8E8"/>
<stop offset="0.875" stop-color="#D3D4D5"/>
<stop offset="1" stop-color="#E8E8E8"/>
</linearGradient>
<linearGradient id="paint10_linear_27_135" x1="99.4234" y1="15.9129" x2="71.7155" y2="-5.08937" gradientUnits="userSpaceOnUse">
<stop stop-color="#E8E8E8"/>
<stop offset="0.125" stop-color="#C4C8CA"/>
<stop offset="0.25" stop-color="#E8E8E8"/>
<stop offset="0.375" stop-color="#C9CCCE"/>
<stop offset="0.5" stop-color="#E8E8E8"/>
<stop offset="0.625" stop-color="#CFD1D2"/>
<stop offset="0.75" stop-color="#E8E8E8"/>
<stop offset="0.875" stop-color="#D3D4D5"/>
<stop offset="1" stop-color="#E8E8E8"/>
</linearGradient>
<linearGradient id="paint11_linear_27_135" x1="81.5432" y1="-7.07769" x2="46.9439" y2="-3.65533" gradientUnits="userSpaceOnUse">
<stop stop-color="#E8E8E8"/>
<stop offset="0.125" stop-color="#C4C8CA"/>
<stop offset="0.25" stop-color="#E8E8E8"/>
<stop offset="0.375" stop-color="#C9CCCE"/>
<stop offset="0.5" stop-color="#E8E8E8"/>
<stop offset="0.625" stop-color="#CFD1D2"/>
<stop offset="0.75" stop-color="#E8E8E8"/>
<stop offset="0.875" stop-color="#D3D4D5"/>
<stop offset="1" stop-color="#E8E8E8"/>
</linearGradient>
<linearGradient id="paint12_linear_27_135" x1="81.5432" y1="-7.07769" x2="46.9439" y2="-3.65533" gradientUnits="userSpaceOnUse">
<stop stop-color="#E8E8E8"/>
<stop offset="0.125" stop-color="#C4C8CA"/>
<stop offset="0.25" stop-color="#E8E8E8"/>
<stop offset="0.375" stop-color="#C9CCCE"/>
<stop offset="0.5" stop-color="#E8E8E8"/>
<stop offset="0.625" stop-color="#CFD1D2"/>
<stop offset="0.75" stop-color="#E8E8E8"/>
<stop offset="0.875" stop-color="#D3D4D5"/>
<stop offset="1" stop-color="#E8E8E8"/>
</linearGradient>
<linearGradient id="paint13_linear_27_135" x1="81.8527" y1="32.4801" x2="53.6777" y2="12.1087" gradientUnits="userSpaceOnUse">
<stop stop-color="#E8E8E8"/>
<stop offset="0.125" stop-color="#C4C8CA"/>
<stop offset="0.25" stop-color="#E8E8E8"/>
<stop offset="0.375" stop-color="#C9CCCE"/>
<stop offset="0.5" stop-color="#E8E8E8"/>
<stop offset="0.625" stop-color="#CFD1D2"/>
<stop offset="0.75" stop-color="#E8E8E8"/>
<stop offset="0.875" stop-color="#D3D4D5"/>
<stop offset="1" stop-color="#E8E8E8"/>
</linearGradient>
<linearGradient id="paint14_linear_27_135" x1="81.8527" y1="32.4801" x2="53.6777" y2="12.1087" gradientUnits="userSpaceOnUse">
<stop stop-color="#E8E8E8"/>
<stop offset="0.125" stop-color="#C4C8CA"/>
<stop offset="0.25" stop-color="#E8E8E8"/>
<stop offset="0.375" stop-color="#C9CCCE"/>
<stop offset="0.5" stop-color="#E8E8E8"/>
<stop offset="0.625" stop-color="#CFD1D2"/>
<stop offset="0.75" stop-color="#E8E8E8"/>
<stop offset="0.875" stop-color="#D3D4D5"/>
<stop offset="1" stop-color="#E8E8E8"/>
</linearGradient>
<linearGradient id="paint15_linear_27_135" x1="74.0861" y1="50.6921" x2="45.9111" y2="30.3207" gradientUnits="userSpaceOnUse">
<stop stop-color="#E8E8E8"/>
<stop offset="0.125" stop-color="#C4C8CA"/>
<stop offset="0.25" stop-color="#E8E8E8"/>
<stop offset="0.375" stop-color="#C9CCCE"/>
<stop offset="0.5" stop-color="#E8E8E8"/>
<stop offset="0.625" stop-color="#CFD1D2"/>
<stop offset="0.75" stop-color="#E8E8E8"/>
<stop offset="0.875" stop-color="#D3D4D5"/>
<stop offset="1" stop-color="#E8E8E8"/>
</linearGradient>
<linearGradient id="paint16_linear_27_135" x1="74.0861" y1="50.6921" x2="45.9111" y2="30.3207" gradientUnits="userSpaceOnUse">
<stop stop-color="#E8E8E8"/>
<stop offset="0.125" stop-color="#C4C8CA"/>
<stop offset="0.25" stop-color="#E8E8E8"/>
<stop offset="0.375" stop-color="#C9CCCE"/>
<stop offset="0.5" stop-color="#E8E8E8"/>
<stop offset="0.625" stop-color="#CFD1D2"/>
<stop offset="0.75" stop-color="#E8E8E8"/>
<stop offset="0.875" stop-color="#D3D4D5"/>
<stop offset="1" stop-color="#E8E8E8"/>
</linearGradient>
<linearGradient id="paint17_linear_27_135" x1="59.6996" y1="78.5801" x2="24.9327" y2="78.8843" gradientUnits="userSpaceOnUse">
<stop stop-color="#E8E8E8"/>
<stop offset="0.125" stop-color="#C4C8CA"/>
<stop offset="0.25" stop-color="#E8E8E8"/>
<stop offset="0.375" stop-color="#C9CCCE"/>
<stop offset="0.5" stop-color="#E8E8E8"/>
<stop offset="0.625" stop-color="#CFD1D2"/>
<stop offset="0.75" stop-color="#E8E8E8"/>
<stop offset="0.875" stop-color="#D3D4D5"/>
<stop offset="1" stop-color="#E8E8E8"/>
</linearGradient>
<linearGradient id="paint18_linear_27_135" x1="59.6996" y1="78.5801" x2="24.9327" y2="78.8843" gradientUnits="userSpaceOnUse">
<stop stop-color="#E8E8E8"/>
<stop offset="0.125" stop-color="#C4C8CA"/>
<stop offset="0.25" stop-color="#E8E8E8"/>
<stop offset="0.375" stop-color="#C9CCCE"/>
<stop offset="0.5" stop-color="#E8E8E8"/>
<stop offset="0.625" stop-color="#CFD1D2"/>
<stop offset="0.75" stop-color="#E8E8E8"/>
<stop offset="0.875" stop-color="#D3D4D5"/>
<stop offset="1" stop-color="#E8E8E8"/>
</linearGradient>
<linearGradient id="paint19_linear_27_135" x1="39.8617" y1="96.2565" x2="5.09484" y2="96.5607" gradientUnits="userSpaceOnUse">
<stop stop-color="#E8E8E8"/>
<stop offset="0.125" stop-color="#C4C8CA"/>
<stop offset="0.25" stop-color="#E8E8E8"/>
<stop offset="0.375" stop-color="#C9CCCE"/>
<stop offset="0.5" stop-color="#E8E8E8"/>
<stop offset="0.625" stop-color="#CFD1D2"/>
<stop offset="0.75" stop-color="#E8E8E8"/>
<stop offset="0.875" stop-color="#D3D4D5"/>
<stop offset="1" stop-color="#E8E8E8"/>
</linearGradient>
<linearGradient id="paint20_linear_27_135" x1="39.8617" y1="96.2565" x2="5.09484" y2="96.5607" gradientUnits="userSpaceOnUse">
<stop stop-color="#E8E8E8"/>
<stop offset="0.125" stop-color="#C4C8CA"/>
<stop offset="0.25" stop-color="#E8E8E8"/>
<stop offset="0.375" stop-color="#C9CCCE"/>
<stop offset="0.5" stop-color="#E8E8E8"/>
<stop offset="0.625" stop-color="#CFD1D2"/>
<stop offset="0.75" stop-color="#E8E8E8"/>
<stop offset="0.875" stop-color="#D3D4D5"/>
<stop offset="1" stop-color="#E8E8E8"/>
</linearGradient>
<linearGradient id="paint21_linear_27_135" x1="32.6497" y1="113.168" x2="-2.11708" y2="113.472" gradientUnits="userSpaceOnUse">
<stop stop-color="#E8E8E8"/>
<stop offset="0.125" stop-color="#C4C8CA"/>
<stop offset="0.25" stop-color="#E8E8E8"/>
<stop offset="0.375" stop-color="#C9CCCE"/>
<stop offset="0.5" stop-color="#E8E8E8"/>
<stop offset="0.625" stop-color="#CFD1D2"/>
<stop offset="0.75" stop-color="#E8E8E8"/>
<stop offset="0.875" stop-color="#D3D4D5"/>
<stop offset="1" stop-color="#E8E8E8"/>
</linearGradient>
<linearGradient id="paint22_linear_27_135" x1="32.6497" y1="113.168" x2="-2.11708" y2="113.472" gradientUnits="userSpaceOnUse">
<stop stop-color="#E8E8E8"/>
<stop offset="0.125" stop-color="#C4C8CA"/>
<stop offset="0.25" stop-color="#E8E8E8"/>
<stop offset="0.375" stop-color="#C9CCCE"/>
<stop offset="0.5" stop-color="#E8E8E8"/>
<stop offset="0.625" stop-color="#CFD1D2"/>
<stop offset="0.75" stop-color="#E8E8E8"/>
<stop offset="0.875" stop-color="#D3D4D5"/>
<stop offset="1" stop-color="#E8E8E8"/>
</linearGradient>
<linearGradient id="paint23_linear_27_135" x1="17.8047" y1="120.171" x2="-15.7433" y2="111.041" gradientUnits="userSpaceOnUse">
<stop stop-color="#E8E8E8"/>
<stop offset="0.125" stop-color="#C4C8CA"/>
<stop offset="0.25" stop-color="#E8E8E8"/>
<stop offset="0.375" stop-color="#C9CCCE"/>
<stop offset="0.5" stop-color="#E8E8E8"/>
<stop offset="0.625" stop-color="#CFD1D2"/>
<stop offset="0.75" stop-color="#E8E8E8"/>
<stop offset="0.875" stop-color="#D3D4D5"/>
<stop offset="1" stop-color="#E8E8E8"/>
</linearGradient>
<linearGradient id="paint24_linear_27_135" x1="17.8047" y1="120.171" x2="-15.7433" y2="111.041" gradientUnits="userSpaceOnUse">
<stop stop-color="#E8E8E8"/>
<stop offset="0.125" stop-color="#C4C8CA"/>
<stop offset="0.25" stop-color="#E8E8E8"/>
<stop offset="0.375" stop-color="#C9CCCE"/>
<stop offset="0.5" stop-color="#E8E8E8"/>
<stop offset="0.625" stop-color="#CFD1D2"/>
<stop offset="0.75" stop-color="#E8E8E8"/>
<stop offset="0.875" stop-color="#D3D4D5"/>
<stop offset="1" stop-color="#E8E8E8"/>
</linearGradient>
<linearGradient id="paint25_linear_27_135" x1="27.2784" y1="98.3755" x2="5.49796" y2="71.2749" gradientUnits="userSpaceOnUse">
<stop stop-color="#E8E8E8"/>
<stop offset="0.125" stop-color="#C4C8CA"/>
<stop offset="0.25" stop-color="#E8E8E8"/>
<stop offset="0.375" stop-color="#C9CCCE"/>
<stop offset="0.5" stop-color="#E8E8E8"/>
<stop offset="0.625" stop-color="#CFD1D2"/>
<stop offset="0.75" stop-color="#E8E8E8"/>
<stop offset="0.875" stop-color="#D3D4D5"/>
<stop offset="1" stop-color="#E8E8E8"/>
</linearGradient>
<linearGradient id="paint26_linear_27_135" x1="27.2784" y1="98.3755" x2="5.49796" y2="71.2749" gradientUnits="userSpaceOnUse">
<stop stop-color="#E8E8E8"/>
<stop offset="0.125" stop-color="#C4C8CA"/>
<stop offset="0.25" stop-color="#E8E8E8"/>
<stop offset="0.375" stop-color="#C9CCCE"/>
<stop offset="0.5" stop-color="#E8E8E8"/>
<stop offset="0.625" stop-color="#CFD1D2"/>
<stop offset="0.75" stop-color="#E8E8E8"/>
<stop offset="0.875" stop-color="#D3D4D5"/>
<stop offset="1" stop-color="#E8E8E8"/>
</linearGradient>
</defs>
</svg>
