<svg width="173" height="229" viewBox="0 0 173 229" fill="none" xmlns="http://www.w3.org/2000/svg">
<g id="moon">
<path id="Vector 48" d="M147.027 105.977C147.488 105.122 150.713 105.248 159.927 112.585C156.588 113.171 149.188 113.876 146.304 112.009M147.027 105.977C148.142 106.292 150.215 107.47 149.595 109.658C148.976 111.846 147.143 112.137 146.304 112.009M147.027 105.977C146.44 106.119 145.219 106.798 145.037 108.367C144.666 109.291 144.4 111.313 146.304 112.009" stroke="#737579"/>
<path id="Vector 41" d="M126.311 133.92C128.004 134.509 131.557 136.259 132.221 138.548" stroke="#737579"/>
<path id="Vector 42" d="M126.493 137.911C126.497 139.444 128.872 142.261 138.344 141.267" stroke="#737579"/>
<path id="Vector 43" d="M135.27 144.008C134.318 145.051 131.476 146.741 127.724 145.153" stroke="#737579"/>
<path id="Vector 44" d="M142.893 137.96C143.676 139.057 144.776 141.973 142.908 144.858" stroke="#737579"/>
<path id="Vector 45" d="M138.136 125.78C138.359 128.469 137.441 132.87 131.983 128.961" stroke="#737579"/>
<path id="Vector 46" d="M147.958 95.7359C150.978 94.7311 158.837 94.878 166.11 103.503" stroke="#737579"/>
<path id="Vector 47" d="M149.843 104.148C151.462 103.841 155.44 104.092 158.398 107.556L164.698 111.966" stroke="#737579"/>
<path id="Vector 40" d="M185.836 97.6012C165.036 1.37132 82.9494 10.0281 44.506 26.3852C80.2281 15.2317 108.371 28.8273 117.977 37.0193C147.248 57.9153 146.443 77.9084 142.382 85.293C137.371 94.6407 139.535 98.8209 141.243 99.7425C141.495 103.49 134.221 108.696 130.553 110.83C123.317 118.76 121.428 123.345 121.387 124.647C123.474 126.551 127.18 128.148 128.772 128.708C129.473 131.795 128.203 133.033 127.481 133.266C124.811 134.348 125.507 136.756 126.189 137.825C121.68 138.911 122.498 142.36 123.47 143.948C115.809 147.818 113.388 155.208 113.135 158.419C79.3191 198.999 28.8475 173.608 7.83871 155.84C69.2509 239.413 138.435 200.052 165.35 169.926C188.815 140.857 188.784 109.597 185.836 97.6012Z" stroke="#737579"/>
</g>
</svg>
