<svg width="134" height="165" viewBox="0 0 134 165" fill="none" xmlns="http://www.w3.org/2000/svg">
<g id="sun">
<path id="Ellipse 1" d="M83.953 82.1278C83.953 102.366 66.1049 118.842 43.9985 118.842C21.8921 118.842 4.04395 102.366 4.04395 82.1278C4.04395 61.8894 21.8921 45.4132 43.9985 45.4132C66.1049 45.4132 83.953 61.8894 83.953 82.1278Z" stroke="#737579"/>
<path id="Vector 1" d="M50.4717 46.4018C51.8202 42.9284 56.459 35.3863 64.2262 33.0045C66.6535 32.5084 71.6699 29.1342 72.3171 19.6073C72.8565 16.6301 75.7153 10.3781 82.8353 9.18719C79.8686 12.6606 74.5826 22.2867 77.1717 33.0045C78.3496 37.8808 65.0353 42.9781 68.2717 53.1004" stroke="#737579"/>
<path id="Vector 6" d="M82.834 88.8265C86.5144 90.2895 95.6684 93.2378 97.7487 100.522C98.1296 102.783 101.465 107.606 111.757 108.818C114.952 109.506 121.549 112.535 122.379 119.149C118.804 116.2 108.704 110.724 96.9097 112.406C91.5438 113.171 86.8772 100.619 75.687 102.934" stroke="#737579"/>
<path id="Vector 2" d="M38.333 45.6575L43.9966 1L49.6603 45.6575" stroke="#737579"/>
<path id="Vector 14" d="M13.3991 58.9016L-18.4398 24.7901L21.3482 52.3563" stroke="#737579"/>
<path id="Vector 9" d="M50.4717 118.598L44.8081 164L39.1444 118.598" stroke="#737579"/>
<path id="Vector 7" d="M74.6364 105.643L106.343 139.859L66.6543 111.9" stroke="#737579"/>
<path id="Vector 16" d="M19.7276 111.155L-18.9423 140.288L12.3906 104.457" stroke="#737579"/>
<path id="Vector 4" d="M67.3353 53.1282L105.995 25.6205L75.2571 60.5762" stroke="#737579"/>
<path id="Vector 5" d="M83.6455 77.6621L133 82.8722L83.6455 87.3379" stroke="#737579"/>
<path id="Vector 15" d="M4.35454 87.3379L-45 82.1278L4.35454 77.6621" stroke="#737579"/>
<path id="Vector 3" d="M75.5518 59.7991C77.1699 61.2877 82.1863 63.3717 89.3063 59.7991C93.6215 56.0776 103.223 49.0813 107.106 50.8676C110.99 52.6539 120.591 49.6271 124.906 47.8904C123.018 50.6195 117.463 56.0776 110.343 56.0776C107.646 56.5738 101.604 58.6082 99.0154 62.7762C97.1275 66.0015 91.4099 73.494 83.6427 77.6621" stroke="#737579"/>
<path id="Vector 8" d="M66.6558 111.9C65.003 113.356 65.3105 116.822 69.0392 123.447C72.9904 127.496 80.3864 136.478 78.361 140.011C76.3357 143.544 79.4176 152.44 81.2117 156.446C78.2866 154.651 72.4748 149.423 72.6288 142.875C72.1478 140.384 70.0675 134.784 65.5936 132.312C62.1292 130.506 54.1099 125.086 49.7481 117.852" stroke="#737579"/>
<path id="Vector 10" d="M37.5297 46.4019C36.9903 43.6728 33.1606 36.7261 22.157 30.7717C19.46 28.2908 14.2279 21.9891 14.8751 16.6302C14.066 14.3973 10.9915 9.48497 5.16602 7.69867C7.86299 10.6758 12.9333 17.3745 11.6387 20.3516C10.8297 23.3288 9.69692 30.0274 11.6387 33.0046C13.2569 35.9818 18.4351 43.4247 26.2024 49.379" stroke="#737579"/>
<path id="Vector 12" d="M4.35261 87.3378C1.54486 88.3492 -5.16417 91.1458 -9.40194 102.224C-11.5304 105.135 -22.043 108.427 -27.8843 108.872C-30.1109 110.032 -34.7606 113.751 -35.5469 119.354C-32.889 116.347 -27.3904 112.047 -23.9656 112.644C-20.6341 112.802 -10.5867 113.404 -7.78376 111.079C-4.91864 109.046 3.53843 105.17 8.39806 97.0136" stroke="#737579"/>
<path id="Vector 11" d="M11.6363 61.2876C8.13021 61.5357 0.309002 61.1387 -2.92736 57.5661C-5.35463 55.0851 -12.151 50.4209 -19.9183 51.6118C-22.8849 52.108 -30.4365 51.7606 -36.9092 46.4017C-36.6395 48.3865 -33.9965 53.1004 -25.5819 56.0775C-20.7274 56.8218 -10.6946 59.5013 -9.40009 64.2647C-7.78191 67.49 -2.76554 74.536 4.35446 76.9177" stroke="#737579"/>
<path id="Vector 13" d="M21.3943 111.914C21.6606 115.139 21.2216 122.334 17.3349 125.308C14.6356 127.538 9.5588 133.786 10.8459 140.932C11.3825 143.662 10.9977 150.608 5.16602 156.557C7.32385 156.311 12.4506 153.884 15.695 146.146C16.5088 141.681 19.4311 132.455 24.6105 131.268C28.1181 129.783 35.7823 125.175 38.3782 118.627" stroke="#737579"/>
<path id="Vector 22" d="M18.1084 67.2419C22.1727 64.9953 31.7463 61.85 37.5266 67.2419" stroke="#737579"/>
<path id="Vector 23" d="M48.8555 67.2419C52.0542 64.9953 58.1506 61.85 69.8918 67.2419" stroke="#737579"/>
<g id="eye right">
<path id="Vector 25" d="M53.708 76.4158C55.7387 74.1691 60.9898 70.4614 66.6535 76.4158" stroke="#737579" stroke-linecap="round"/>
<path id="Vector 24" d="M52.0908 74.6849C54.5181 72.2929 60.9908 69.1566 65.8454 73.9407" stroke="#737579" stroke-linecap="round"/>
<path id="Ellipse 2" d="M62.9151 76.1736C62.9151 77.5033 61.7301 78.6508 60.1787 78.6508C58.6274 78.6508 57.4424 77.5033 57.4424 76.1736C57.4424 74.844 58.6274 73.6965 60.1787 73.6965C61.7301 73.6965 62.9151 74.844 62.9151 76.1736Z" stroke="#737579"/>
</g>
<g id="eye left">
<path id="Vector 26" d="M35.903 74.6851C32.7618 71.4119 25.3848 68.7307 22.1484 74.685" stroke="#737579" stroke-linecap="round"/>
<path id="Vector 27" d="M35.9064 77.6623C33.1324 74.2923 26.2898 69.5744 21.1116 77.6623H19.7246" stroke="#737579" stroke-linecap="round"/>
<path id="Ellipse 3" d="M30.5489 76.1737C30.5489 77.5033 29.3639 78.6509 27.8125 78.6509C26.2612 78.6509 25.0762 77.5033 25.0762 76.1737C25.0762 74.8441 26.2612 73.6965 27.8125 73.6965C29.3639 73.6965 30.5489 74.8441 30.5489 76.1737Z" stroke="#737579"/>
</g>
<g id="nose">
<path id="Vector 29" d="M38.5843 91.0595C37.4725 91.9764 36.2799 93.9102 40.4035 94.3103C41.3131 95.2271 43.5568 96.5108 45.2547 94.3103C47.175 94.477 50.4092 94.1102 47.9835 91.3096" stroke="#737579" stroke-linecap="round"/>
<path id="Vector 28" d="M42.3779 79.1508V87.5969C41.1434 88.4706 39.9712 90.6841 41.4526 92.548" stroke="#737579" stroke-linecap="round"/>
</g>
<path id="Vector 31" d="M34.293 102.105H36.412M52.093 102.105H49.5501M36.412 102.105C37.8247 100.697 41.1587 98.5728 43.193 101.337C44.0406 100.185 46.4987 98.7264 49.5501 102.105M36.412 102.105H49.5501M36.412 102.105C37.2596 103.385 39.8025 105.945 43.193 105.945C46.5834 105.945 48.8438 103.385 49.5501 102.105" stroke="#737579" stroke-linecap="round"/>
</g>
</svg>
