<svg width="91" height="100" viewBox="0 0 91 100" fill="none" xmlns="http://www.w3.org/2000/svg">
<g id="sun">
<path id="Ellipse 1" d="M78.3181 49.768C78.3181 61.8083 67.6944 71.6386 54.4999 71.6386C41.3053 71.6386 30.6816 61.8083 30.6816 49.768C30.6816 37.7276 41.3053 27.8973 54.4999 27.8973C67.6944 27.8973 78.3181 37.7276 78.3181 49.768Z" stroke="#737579"/>
<path id="Vector 1" d="M58.3906 28.2921C59.2012 26.2042 61.9897 21.6704 66.6588 20.2387C68.1179 19.9404 71.1334 17.9122 71.5225 12.1853C71.8467 10.3956 73.5652 6.63737 77.8452 5.92151C76.0619 8.00943 72.8843 13.796 74.4406 20.2387C75.1487 23.1699 67.1452 26.234 69.0906 32.3188" stroke="#737579"/>
<path id="Vector 6" d="M77.8438 53.7947C80.0561 54.6741 85.5588 56.4464 86.8093 60.8253C87.0383 62.184 89.0431 65.0836 95.2303 65.8119C97.1506 66.2256 101.116 68.0467 101.615 72.022C99.466 70.2496 93.3948 66.9577 86.305 67.9688C83.0794 68.4289 80.2742 60.8832 73.5475 62.2748" stroke="#737579"/>
<path id="Vector 2" d="M51.0938 27.8447L54.4983 1L57.9028 27.8447" stroke="#737579"/>
<path id="Vector 14" d="M36.104 35.8061L16.9649 15.3008L40.8824 31.8715" stroke="#737579"/>
<path id="Vector 9" d="M58.3906 71.6911L54.9861 98.9833L51.5815 71.6911" stroke="#737579"/>
<path id="Vector 7" d="M72.9159 63.9035L91.9754 84.4714L68.1176 67.6644" stroke="#737579"/>
<path id="Vector 16" d="M39.9099 67.2171L16.6645 84.7296L35.4995 63.1904" stroke="#737579"/>
<path id="Vector 4" d="M68.5284 32.3355L91.7677 15.8L73.2904 36.8127" stroke="#737579"/>
<path id="Vector 5" d="M78.3318 47.0835L108 50.2154L78.3318 52.8999" stroke="#737579"/>
<path id="Vector 15" d="M30.6682 52.8998L1 49.7679L30.6682 47.0834" stroke="#737579"/>
<path id="Vector 3" d="M73.4668 36.3455C74.4395 37.2403 77.455 38.4931 81.735 36.3455C84.3289 34.1084 90.1005 29.9028 92.435 30.9766C94.7696 32.0503 100.541 30.2309 103.135 29.1869C102 30.8274 98.6605 34.1084 94.3805 34.1084C92.7592 34.4067 89.1277 35.6296 87.5714 38.1351C86.4365 40.0739 82.9995 44.5779 78.3304 47.0834" stroke="#737579"/>
<path id="Vector 8" d="M68.117 67.6645C67.1234 68.5398 67.3082 70.6234 69.5497 74.6061C71.9248 77.0402 76.3708 82.4392 75.1533 84.563C73.9358 86.6869 75.7884 92.0343 76.8669 94.4425C75.1085 93.3633 71.6149 90.2208 71.7075 86.2845C71.4183 84.787 70.1678 81.4207 67.4785 79.9351C65.3959 78.8495 60.5753 75.5911 57.9533 71.2428" stroke="#737579"/>
<path id="Vector 10" d="M50.6108 28.2922C50.2866 26.6517 47.9845 22.4758 41.3699 18.8965C39.7487 17.4051 36.6035 13.617 36.9926 10.3957C36.5063 9.05344 34.6581 6.10052 31.1562 5.02673C32.7775 6.81638 35.8253 10.8431 35.0472 12.6327C34.5608 14.4224 33.8799 18.4491 35.0472 20.2387C36.0199 22.0284 39.1326 26.5025 43.8017 30.0818" stroke="#737579"/>
<path id="Vector 12" d="M30.6681 52.8998C28.9803 53.5078 24.9474 55.1889 22.4 61.8481C21.1205 63.5982 14.8011 65.577 11.2897 65.8447C9.9513 66.5417 7.15624 68.7776 6.68359 72.1453C8.28128 70.3378 11.5867 67.7532 13.6454 68.1118C15.6481 68.207 21.6878 68.5688 23.3727 67.1712C25.095 65.9491 30.1787 63.6191 33.1 58.7162" stroke="#737579"/>
<path id="Vector 11" d="M35.0471 37.2403C32.9395 37.3895 28.238 37.1509 26.2925 35.0033C24.8334 33.5119 20.748 30.7081 16.0789 31.424C14.2955 31.7223 9.75615 31.5135 5.86523 28.2921C6.02736 29.4852 7.61615 32.3188 12.6743 34.1085C15.5925 34.5559 21.6234 36.1666 22.4016 39.03C23.3743 40.9688 26.3898 45.2043 30.6698 46.636" stroke="#737579"/>
<path id="Vector 13" d="M40.9115 67.6731C41.0716 69.6121 40.8077 73.9368 38.4713 75.7244C36.8487 77.0652 33.7969 80.8208 34.5706 85.1166C34.8931 86.7574 34.6618 90.9331 31.1562 94.5093C32.4534 94.3613 35.5352 92.9024 37.4855 88.2511C37.9747 85.567 39.7313 80.0207 42.8448 79.3076C44.9533 78.4146 49.5605 75.6447 51.1209 71.7088" stroke="#737579"/>
<path id="Vector 22" d="M38.9375 40.8197C41.3806 39.4692 47.1356 37.5785 50.6102 40.8197" stroke="#737579"/>
<path id="Vector 23" d="M57.418 40.8197C59.3408 39.4692 63.0055 37.5785 70.0634 40.8197" stroke="#737579"/>
<g id="eye right">
<path id="Vector 25" d="M60.3359 46.3343C61.5566 44.9837 64.7132 42.7549 68.1178 46.3343" stroke="#737579" stroke-linecap="round"/>
<path id="Vector 24" d="M59.3633 45.2937C60.8224 43.8558 64.7133 41.9705 67.6315 44.8463" stroke="#737579" stroke-linecap="round"/>
<path id="Ellipse 2" d="M65.6702 46.1887C65.6702 46.8625 65.0632 47.4783 64.2248 47.4783C63.3863 47.4783 62.7793 46.8625 62.7793 46.1887C62.7793 45.5149 63.3863 44.899 64.2248 44.899C65.0632 44.899 65.6702 45.5149 65.6702 46.1887Z" stroke="#737579"/>
</g>
<g id="eye left">
<path id="Vector 26" d="M49.6354 45.2939C47.7471 43.3263 43.3126 41.7146 41.3672 45.2939" stroke="#737579" stroke-linecap="round"/>
<path id="Vector 27" d="M49.6355 47.0836C47.968 45.0579 43.8547 42.2218 40.742 47.0836H39.9082" stroke="#737579" stroke-linecap="round"/>
<path id="Ellipse 3" d="M46.2151 46.1888C46.2151 46.8626 45.6081 47.4785 44.7697 47.4785C43.9313 47.4785 43.3242 46.8626 43.3242 46.1888C43.3242 45.515 43.9313 44.8992 44.7697 44.8992C45.6081 44.8992 46.2151 45.515 46.2151 46.1888Z" stroke="#737579"/>
</g>
<g id="nose">
<path id="Vector 29" d="M51.2451 55.1371C50.5768 55.6882 49.8599 56.8507 52.3387 57.0912C52.8855 57.6423 54.2342 58.414 55.2549 57.0912C56.4092 57.1914 58.3534 56.9709 56.8952 55.2874" stroke="#737579" stroke-linecap="round"/>
<path id="Vector 28" d="M53.5255 47.9784V53.0555C52.7834 53.5808 52.0787 54.9113 52.9692 56.0318" stroke="#737579" stroke-linecap="round"/>
</g>
<path id="Vector 31" d="M48.666 61.7769H49.9398M59.366 61.7769H57.8375M49.9398 61.7769C50.789 60.9305 52.7932 59.6533 54.016 61.3152C54.5255 60.6228 56.0032 59.7457 57.8375 61.7769M49.9398 61.7769H57.8375M49.9398 61.7769C50.4494 62.5463 51.9779 64.085 54.016 64.085C56.0541 64.085 57.4129 62.5463 57.8375 61.7769" stroke="#737579" stroke-linecap="round"/>
</g>
</svg>
